<svg version="1.1" id="Layer_1" xmlns="http://www.w3.org/2000/svg" xmlns:xlink="http://www.w3.org/1999/xlink" x="0px" y="0px"
	 width="100%" viewBox="0 0 512 512" enable-background="new 0 0 512 512" xml:space="preserve">
<path fill="#1967D3" opacity="1.000000" stroke="none" 
	d="
M222.000000,513.000000 
	C148.017929,513.000000 74.535866,513.000000 1.026897,513.000000 
	C1.026897,342.392914 1.026897,171.785797 1.026897,1.089351 
	C171.565430,1.089351 342.130920,1.089351 512.848206,1.089351 
	C512.848206,171.666565 512.848206,342.333252 512.848206,513.000000 
	C416.119110,513.000000 319.309540,513.000000 222.000000,513.000000 
M187.304306,424.147736 
	C189.449295,424.762573 191.588028,425.883026 193.740311,425.909637 
	C207.039917,426.074219 220.342575,425.992767 233.644211,425.992615 
	C258.751038,425.992340 283.857910,426.010681 308.964691,425.978363 
	C315.523956,425.969940 316.968414,424.507446 316.986633,418.139648 
	C317.010437,409.826233 316.992615,401.512634 316.992676,393.199127 
	C316.992706,390.475983 316.992676,387.752869 316.992676,385.013062 
	C320.612701,385.397247 323.310760,385.683594 326.747925,386.021942 
	C342.477783,392.008850 358.207611,397.995789 374.640503,403.636780 
	C375.093262,402.133331 375.937714,400.630829 375.941193,399.126343 
	C376.016602,366.345093 376.023499,333.563568 375.922333,300.782501 
	C375.917450,299.193665 374.804932,297.608276 373.962738,295.139038 
	C373.092590,278.970856 371.026947,263.018768 366.123108,247.493607 
	C361.997955,234.433624 355.901825,222.055481 346.280121,212.732986 
	C338.013550,204.723450 327.517273,198.561554 317.138763,193.292877 
	C301.985535,185.600296 285.051788,183.774887 267.770355,181.112549 
	C265.492310,181.137482 263.214264,181.162415 260.026062,181.395691 
	C250.758514,181.407593 241.490982,181.419495 231.712250,180.898178 
	C230.145813,181.223434 228.579391,181.548691 226.201797,182.070328 
	C224.541016,182.190079 222.880219,182.309830 220.866180,182.022552 
	C220.248657,182.303146 219.631119,182.583725 218.244232,183.061554 
	C217.191940,183.128677 216.139648,183.195816 214.638794,182.890488 
	C214.018341,183.165070 213.397903,183.439636 212.162750,184.019104 
	C210.536072,184.372986 208.899796,184.688004 207.284103,185.086426 
	C168.511032,194.647690 142.026550,217.210526 132.423340,256.952637 
	C129.972687,267.094482 129.276749,277.660278 127.124283,288.412994 
	C126.753052,290.129608 126.061180,291.845612 126.057892,293.562927 
	C125.991013,328.479645 125.982864,363.396576 126.054718,398.313263 
	C126.058586,400.186646 126.867752,402.058411 128.025055,403.902557 
	C128.648300,403.707672 129.283157,403.543579 129.893082,403.313416 
	C146.932068,396.883820 163.968506,390.447571 181.508148,384.368134 
	C184.846008,384.096436 185.045135,386.180969 185.025803,388.748596 
	C184.949936,398.826569 184.923355,408.906555 185.072372,418.982910 
	C185.095016,420.514679 186.141098,422.031372 187.304306,424.147736 
M249.591339,74.799553 
	C246.954132,75.100586 244.248230,75.120956 241.690613,75.747063 
	C221.362915,80.723267 208.986954,100.666664 213.096756,121.792694 
	C216.618301,139.894852 234.510513,155.629105 257.293427,152.296738 
	C277.927460,149.278687 291.736237,131.564056 290.111389,109.271538 
	C288.622040,88.838043 269.426147,73.265572 249.591339,74.799553 
z"/>
<path fill="#FEFEFF" opacity="1.000000" stroke="none" 
	d="
M373.937469,403.982727 
	C358.207611,397.995789 342.477783,392.008850 326.100464,385.773987 
	C324.222198,385.035889 323.020935,384.227112 321.755554,384.109741 
	C315.612976,383.540222 314.475372,380.089417 314.552185,374.380188 
	C314.880280,349.995697 314.756683,325.603760 314.615662,301.215607 
	C314.593567,297.398438 313.629852,293.586761 313.100586,289.360657 
	C313.064667,287.298615 313.029724,285.648468 313.135925,283.777649 
	C313.180939,282.706116 313.084778,281.855194 313.012390,280.591980 
	C312.129181,275.785400 311.447693,271.330139 310.277069,267.007324 
	C304.548462,245.853226 290.688354,233.218643 269.133636,230.136963 
	C258.824402,228.663055 248.199127,229.066986 237.722305,229.168594 
	C217.025116,229.369308 199.011627,243.179916 192.784485,263.291809 
	C191.085098,270.724518 189.596893,277.863922 188.011475,285.325623 
	C187.931046,286.093384 187.947815,286.538879 187.828552,287.372192 
	C187.492859,290.409424 187.128738,293.058228 187.118774,295.708344 
	C187.011398,324.294067 186.959778,352.880005 186.559601,381.612732 
	C184.485977,382.510529 182.745682,383.261475 181.005371,384.012390 
	C163.968506,390.447571 146.932068,396.883820 129.893082,403.313416 
	C129.283157,403.543579 128.648300,403.707672 127.669540,403.452576 
	C127.467545,364.678833 127.621071,326.355072 127.774597,288.031311 
	C129.276749,277.660278 129.972687,267.094482 132.423340,256.952637 
	C142.026550,217.210526 168.511032,194.647690 207.284103,185.086426 
	C208.899796,184.688004 210.536072,184.372986 212.871979,183.889252 
	C214.083252,183.593918 214.585312,183.428436 215.087357,183.262939 
	C216.139648,183.195816 217.191940,183.128677 218.923080,183.023651 
	C220.141098,182.800354 220.680267,182.614960 221.219437,182.429565 
	C222.880219,182.309830 224.541016,182.190079 226.988342,182.034973 
	C229.257736,181.810211 230.740585,181.620804 232.223434,181.431396 
	C241.490982,181.419495 250.758514,181.407593 260.920532,181.435242 
	C263.991394,181.566910 266.167847,181.659012 268.344269,181.751099 
	C285.051788,183.774887 301.985535,185.600296 317.138763,193.292877 
	C327.517273,198.561554 338.013550,204.723450 346.280121,212.732986 
	C355.901825,222.055481 361.997955,234.433624 366.123108,247.493607 
	C371.026947,263.018768 373.092590,278.970856 374.020935,296.043579 
	C374.107147,313.876801 374.176483,330.805511 374.152191,347.734100 
	C374.125275,366.483734 374.012726,385.233185 373.937469,403.982727 
z"/>
<path fill="#FDFEFF" opacity="1.000000" stroke="none" 
	d="
M250.068268,74.798332 
	C269.426147,73.265572 288.622040,88.838043 290.111389,109.271538 
	C291.736237,131.564056 277.927460,149.278687 257.293427,152.296738 
	C234.510513,155.629105 216.618301,139.894852 213.096756,121.792694 
	C208.986954,100.666664 221.362915,80.723267 241.690613,75.747063 
	C244.248230,75.120956 246.954132,75.100586 250.068268,74.798332 
z"/>
<path fill="#206BD4" opacity="1.000000" stroke="none" 
	d="
M186.892914,381.465881 
	C186.959778,352.880005 187.011398,324.294067 187.118774,295.708344 
	C187.128738,293.058228 187.492859,290.409424 188.057220,287.718201 
	C188.609283,289.645752 188.957031,291.614838 188.959808,293.584412 
	C188.997681,320.376801 188.984741,347.169281 188.991714,373.961731 
	C188.993546,380.990112 189.005157,381.008881 195.745316,381.010040 
	C232.688950,381.016388 269.632996,380.926788 306.575684,381.113892 
	C311.579865,381.139221 313.158691,379.736572 313.123535,374.641144 
	C312.928497,346.352875 313.073151,318.062317 313.101532,289.772522 
	C313.629852,293.586761 314.593567,297.398438 314.615662,301.215607 
	C314.756683,325.603760 314.880280,349.995697 314.552185,374.380188 
	C314.475372,380.089417 315.612976,383.540222 321.755554,384.109741 
	C323.020935,384.227112 324.222198,385.035889 325.730896,385.747986 
	C323.310760,385.683594 320.612701,385.397247 316.992676,385.013062 
	C316.992676,387.752869 316.992706,390.475983 316.992676,393.199127 
	C316.992615,401.512634 317.010437,409.826233 316.986633,418.139648 
	C316.968414,424.507446 315.523956,425.969940 308.964691,425.978363 
	C283.857910,426.010681 258.751038,425.992340 233.644211,425.992615 
	C220.342575,425.992767 207.039917,426.074219 193.740311,425.909637 
	C191.588028,425.883026 189.449295,424.762573 187.062164,423.829895 
	C186.820007,423.512054 186.936188,423.494202 187.404755,423.553711 
	C230.072403,423.613220 272.271484,423.613220 314.558899,423.613220 
	C314.558899,409.748779 314.558899,396.538177 314.558899,383.043884 
	C271.829803,383.043884 229.424118,383.043884 186.978088,382.650085 
	C186.922775,381.992828 186.907837,381.729340 186.892914,381.465881 
z"/>
<path fill="#0459CE" opacity="1.000000" stroke="none" 
	d="
M374.289001,403.809753 
	C374.012726,385.233185 374.125275,366.483734 374.152191,347.734100 
	C374.176483,330.805511 374.107147,313.876801 374.143677,296.484680 
	C374.804932,297.608276 375.917450,299.193665 375.922333,300.782501 
	C376.023499,333.563568 376.016602,366.345093 375.941193,399.126343 
	C375.937714,400.630829 375.093262,402.133331 374.289001,403.809753 
z"/>
<path fill="#004FCA" opacity="1.000000" stroke="none" 
	d="
M127.449432,288.222168 
	C127.621071,326.355072 127.467545,364.678833 127.308029,403.466736 
	C126.867752,402.058411 126.058586,400.186646 126.054718,398.313263 
	C125.982864,363.396576 125.991013,328.479645 126.057892,293.562927 
	C126.061180,291.845612 126.753052,290.129608 127.449432,288.222168 
z"/>
<path fill="#065ACE" opacity="1.000000" stroke="none" 
	d="
M186.559601,381.612732 
	C186.907837,381.729340 186.922775,381.992828 186.908325,383.111389 
	C186.898026,397.142365 186.917114,410.318298 186.936188,423.494202 
	C186.936188,423.494202 186.820007,423.512054 186.766907,423.533539 
	C186.141098,422.031372 185.095016,420.514679 185.072372,418.982910 
	C184.923355,408.906555 184.949936,398.826569 185.025803,388.748596 
	C185.045135,386.180969 184.846008,384.096436 181.256760,384.190247 
	C182.745682,383.261475 184.485977,382.510529 186.559601,381.612732 
z"/>
<path fill="#065ACF" opacity="1.000000" stroke="none" 
	d="
M231.967834,181.164795 
	C230.740585,181.620804 229.257736,181.810211 227.393921,181.936768 
	C228.579391,181.548691 230.145813,181.223434 231.967834,181.164795 
z"/>
<path fill="#065ACF" opacity="1.000000" stroke="none" 
	d="
M268.057312,181.431824 
	C266.167847,181.659012 263.991394,181.566910 261.375610,181.331070 
	C263.214264,181.162415 265.492310,181.137482 268.057312,181.431824 
z"/>
<path fill="#065ACF" opacity="1.000000" stroke="none" 
	d="
M221.042816,182.226059 
	C220.680267,182.614960 220.141098,182.800354 219.307755,182.925034 
	C219.631119,182.583725 220.248657,182.303146 221.042816,182.226059 
z"/>
<path fill="#065ACF" opacity="1.000000" stroke="none" 
	d="
M214.863068,183.076721 
	C214.585312,183.428436 214.083252,183.593918 213.179321,183.736816 
	C213.397903,183.439636 214.018341,183.165070 214.863068,183.076721 
z"/>
<path fill="#1967D3" opacity="1.000000" stroke="none" 
	d="
M313.100586,289.360657 
	C313.073151,318.062317 312.928497,346.352875 313.123535,374.641144 
	C313.158691,379.736572 311.579865,381.139221 306.575684,381.113892 
	C269.632996,380.926788 232.688950,381.016388 195.745316,381.010040 
	C189.005157,381.008881 188.993546,380.990112 188.991714,373.961731 
	C188.984741,347.169281 188.997681,320.376801 188.959808,293.584412 
	C188.957031,291.614838 188.609283,289.645752 188.193237,287.330414 
	C187.947815,286.538879 187.931046,286.093384 188.338959,285.167725 
	C189.999100,279.815918 191.357590,274.970764 192.415665,270.060852 
	C192.909027,267.771393 192.820450,265.356537 192.995667,262.998505 
	C199.011627,243.179916 217.025116,229.369308 237.722305,229.168594 
	C248.199127,229.066986 258.824402,228.663055 269.133636,230.136963 
	C290.688354,233.218643 304.548462,245.853226 310.277069,267.007324 
	C311.447693,271.330139 312.129181,275.785400 312.830444,280.811584 
	C312.748077,282.295166 312.871429,283.146729 312.994751,283.998322 
	C313.029724,285.648468 313.064667,287.298615 313.100586,289.360657 
M259.574829,364.080597 
	C262.462067,360.634827 265.149414,356.991608 268.298157,353.804138 
	C270.940338,351.129486 271.459595,348.295746 270.972656,344.762726 
	C269.836731,336.520721 268.985046,328.239868 267.970093,319.980713 
	C265.087677,296.525574 262.200317,273.070984 259.240784,249.625549 
	C259.043152,248.059860 258.364929,245.328796 257.674438,245.251709 
	C253.411469,244.775803 248.971863,244.350906 244.837082,245.162704 
	C243.545807,245.416214 242.517303,249.490173 242.214493,251.920685 
	C238.284592,283.465454 234.500381,315.028412 230.716675,346.591248 
	C230.564301,347.862366 230.256897,349.600739 230.907318,350.407074 
	C237.330795,358.370270 243.941620,366.182343 250.825165,374.427490 
	C253.979523,370.689117 256.542328,367.651794 259.574829,364.080597 
z"/>
<path fill="#206BD4" opacity="1.000000" stroke="none" 
	d="
M192.784485,263.291809 
	C192.820450,265.356537 192.909027,267.771393 192.415665,270.060852 
	C191.357590,274.970764 189.999100,279.815918 188.436157,284.845459 
	C189.596893,277.863922 191.085098,270.724518 192.784485,263.291809 
z"/>
<path fill="#206BD4" opacity="1.000000" stroke="none" 
	d="
M313.135925,283.777649 
	C312.871429,283.146729 312.748077,282.295166 312.806671,281.223938 
	C313.084778,281.855194 313.180939,282.706116 313.135925,283.777649 
z"/>
<path fill="#FCFDFE" opacity="1.000000" stroke="none" 
	d="
M187.404755,423.553711 
	C186.917114,410.318298 186.898026,397.142365 186.948685,383.505188 
	C229.424118,383.043884 271.829803,383.043884 314.558899,383.043884 
	C314.558899,396.538177 314.558899,409.748779 314.558899,423.613220 
	C272.271484,423.613220 230.072403,423.613220 187.404755,423.553711 
z"/>
<path fill="#FCFDFE" opacity="1.000000" stroke="none" 
	d="
M259.339966,364.347534 
	C256.542328,367.651794 253.979523,370.689117 250.825165,374.427490 
	C243.941620,366.182343 237.330795,358.370270 230.907318,350.407074 
	C230.256897,349.600739 230.564301,347.862366 230.716675,346.591248 
	C234.500381,315.028412 238.284592,283.465454 242.214493,251.920685 
	C242.517303,249.490173 243.545807,245.416214 244.837082,245.162704 
	C248.971863,244.350906 253.411469,244.775803 257.674438,245.251709 
	C258.364929,245.328796 259.043152,248.059860 259.240784,249.625549 
	C262.200317,273.070984 265.087677,296.525574 267.970093,319.980713 
	C268.985046,328.239868 269.836731,336.520721 270.972656,344.762726 
	C271.459595,348.295746 270.940338,351.129486 268.298157,353.804138 
	C265.149414,356.991608 262.462067,360.634827 259.339966,364.347534 
z"/>
</svg>