<svg version="1.1" id="Layer_1" xmlns="http://www.w3.org/2000/svg" xmlns:xlink="http://www.w3.org/1999/xlink" x="0px" y="0px"
	 width="100%" viewBox="0 0 800 148" enable-background="new 0 0 800 148" xml:space="preserve">
<path fill="#1967D1" opacity="1.000000" stroke="none" 
	d="
M596.000000,149.000000 
	C397.385590,149.000000 199.271149,149.000000 1.078364,149.000000 
	C1.078364,99.732018 1.078364,50.463886 1.078364,1.097873 
	C267.666656,1.097873 534.333313,1.097873 800.972900,1.097873 
	C800.972900,50.395485 800.972900,99.697754 800.972900,149.000000 
	C732.797180,149.000000 664.648621,149.000000 596.000000,149.000000 
M517.408691,112.178032 
	C517.722778,112.411263 518.036865,112.644485 518.136047,112.884186 
	C518.136047,112.884186 518.132202,112.669220 518.367065,113.178940 
	C518.613831,113.455971 518.860596,113.732994 519.011597,113.973297 
	C519.011597,113.973297 519.048645,113.877678 519.144470,114.466873 
	C519.428406,114.984337 519.712402,115.501801 520.063538,116.355934 
	C520.385010,116.555481 520.706482,116.755020 521.786926,117.131195 
	C523.594360,117.364204 525.401855,117.597206 527.080688,117.868668 
	C527.080688,117.868668 527.044495,117.739441 527.507996,118.321426 
	C531.002869,119.209442 534.497803,120.097458 538.384033,121.219376 
	C538.924194,120.863861 539.464355,120.508347 540.828430,120.095139 
	C543.179016,118.980537 545.529663,117.865929 547.880981,116.848557 
	C547.880981,116.848557 547.783752,116.846329 548.422913,116.793648 
	C548.931519,116.429619 549.440186,116.065590 549.897522,115.850319 
	C549.897522,115.850319 549.749695,115.796478 550.463562,115.844666 
	C551.265259,115.148117 552.066895,114.451569 552.894165,113.902763 
	C552.894165,113.902763 552.746033,113.926155 553.236938,113.668587 
	C553.491211,113.403992 553.745422,113.139397 553.991089,112.996811 
	C553.991089,112.996811 553.869080,112.987984 554.322021,112.716782 
	C554.547913,112.449776 554.773804,112.182777 554.989990,111.985451 
	C554.989990,111.985451 554.920532,111.974403 555.528564,111.882584 
	C556.070801,111.596603 556.613098,111.310623 557.685852,110.753166 
	C559.732788,108.387276 557.894531,107.690239 555.347351,107.179649 
	C555.113586,107.264938 554.879883,107.350220 554.658508,107.358910 
	C554.658508,107.358910 554.594849,107.403282 554.819397,106.697556 
	C554.878296,106.458008 554.937134,106.218468 554.998901,105.139618 
	C555.009094,103.477463 555.019226,101.815315 555.581055,99.970390 
	C556.044861,99.634933 556.508667,99.299477 557.353943,98.776993 
	C557.353943,98.776993 557.778381,98.795654 558.495972,98.562256 
	C563.043579,93.029953 557.354370,78.230850 552.050415,74.717911 
	C551.065125,74.065369 549.672791,74.027412 548.467590,73.639969 
	C548.467590,73.639969 548.408508,73.668953 548.344299,72.940689 
	C542.642944,66.782906 527.892761,66.338829 521.273499,72.189941 
	C520.724426,72.675323 520.587402,73.626953 520.195679,74.192696 
	C520.195679,74.192696 520.366272,74.133110 519.842773,74.424522 
	C519.578003,74.718803 519.313293,75.013077 518.900208,75.687973 
	C518.721191,75.921761 518.484436,76.039627 517.560852,76.205505 
	C517.068787,76.861473 516.576721,77.517441 516.057800,78.048828 
	C516.057800,78.048828 516.182617,78.023132 515.724365,78.352226 
	C515.505859,78.656273 515.287354,78.960320 515.061890,79.067963 
	C515.061890,79.067963 515.258301,79.062393 514.775085,79.362717 
	C514.529968,79.649681 514.284912,79.936646 514.061523,80.077873 
	C514.061523,80.077873 514.207031,80.101097 513.521729,80.280540 
	C508.449188,85.424232 507.477661,91.853119 508.899078,98.424248 
	C509.526245,101.323608 508.450012,105.861580 513.177002,106.819229 
	C513.177002,106.819229 513.161316,106.681198 513.313293,107.183426 
	C513.516418,107.464661 513.719604,107.745888 514.101624,108.351303 
	C514.101624,108.351303 514.108215,108.721497 514.263428,109.367111 
	C514.941833,109.849663 515.620178,110.332207 516.128357,110.861404 
	C516.128357,110.861404 516.084412,110.690437 516.398376,111.186050 
	C516.702576,111.428444 517.006714,111.670845 517.082092,111.916565 
	C517.082092,111.916565 517.080566,111.687706 517.408691,112.178032 
M480.126740,73.141014 
	C480.126740,73.141014 480.323486,73.142494 479.815247,73.362236 
	C479.542969,73.606018 479.270660,73.849800 479.045013,74.019775 
	C479.045013,74.019775 479.118591,74.066803 478.399750,74.103806 
	C476.674133,76.489647 474.948517,78.875481 473.170258,81.152588 
	C473.170258,81.152588 473.280365,81.102913 472.786285,81.351440 
	C472.525177,81.607407 472.264099,81.863373 472.045319,82.040329 
	C472.045319,82.040329 472.123932,82.083351 471.346436,81.899277 
	C470.556335,80.295975 469.150269,78.717590 469.084198,77.084991 
	C468.818054,70.507126 469.091522,63.908405 468.876465,57.326839 
	C468.819244,55.576099 467.732391,53.859001 466.390350,51.732601 
	C464.737732,51.603565 463.062653,51.604034 461.436676,51.321613 
	C456.219116,50.415352 455.027405,52.709751 455.109344,57.672920 
	C455.400757,75.326691 455.219727,92.988182 455.227386,110.646751 
	C455.230591,118.046204 456.425781,119.071625 463.661835,117.840050 
	C464.798370,117.646606 465.897064,117.230484 467.661011,116.568832 
	C468.304230,112.454697 468.947418,108.340553 469.787811,102.965103 
	C472.265137,105.894524 474.023621,108.177635 475.998413,110.255180 
	C478.230804,112.603729 480.657471,114.767639 482.995514,117.004478 
	C482.995514,117.004478 482.988281,117.000175 483.302338,117.659431 
	C487.392609,117.988152 491.499237,118.682693 495.566681,118.500786 
	C497.808685,118.400513 499.328583,116.694717 496.190155,114.659248 
	C496.190155,114.659248 496.181305,114.466347 496.348053,113.746590 
	C493.357697,109.271904 490.713928,104.507217 487.280090,100.403648 
	C483.806549,96.252625 480.910278,92.399223 483.935638,86.932823 
	C483.935638,86.932823 483.808350,86.851501 484.499023,86.754425 
	C488.264740,84.265480 492.235535,81.946846 492.949432,76.941330 
	C492.949432,76.941330 492.762848,76.805298 493.480194,76.690506 
	C494.631775,74.712486 495.783356,72.734474 496.523163,70.157158 
	C491.887695,68.125839 487.404694,68.511253 482.658295,71.164680 
	C482.658295,71.164680 482.231506,71.162369 481.761108,71.441772 
	C481.535706,71.728889 481.310303,72.016006 481.092957,72.095459 
	C481.092957,72.095459 481.300537,72.105560 480.810211,72.412376 
	C480.582886,72.720840 480.355530,73.029312 480.126740,73.141014 
M204.846527,34.481304 
	C204.637314,34.259239 204.426682,34.038513 204.071320,33.139496 
	C202.777985,32.017918 201.484650,30.896341 199.856598,29.459858 
	C199.634048,29.249252 199.410660,29.039547 198.925125,28.191650 
	C196.342728,26.725307 193.760330,25.258963 190.680344,23.300079 
	C188.091995,22.234711 185.564682,20.454807 182.904724,20.227535 
	C171.326736,19.238289 159.717255,18.520519 148.105103,18.061665 
	C140.120224,17.746140 132.110565,17.922859 124.114990,18.057859 
	C118.150513,18.158564 116.984344,20.242153 119.750748,25.551262 
	C120.255554,26.520052 121.223999,27.247252 122.113174,28.370668 
	C122.113174,28.370668 122.083870,28.684280 122.040421,29.461525 
	C122.759216,30.954231 123.478020,32.446938 124.128906,33.938419 
	C124.128906,33.938419 124.172852,33.886204 124.085220,34.713951 
	C124.364708,37.267715 124.644196,39.821480 124.997513,43.049820 
	C122.256760,43.049820 119.806923,43.038704 117.357208,43.051914 
	C110.131561,43.090881 109.061440,44.122059 109.034630,51.484211 
	C108.989220,63.952118 108.944557,76.420898 109.042374,88.888199 
	C109.129730,100.022308 106.845253,102.857780 121.493416,102.012917 
	C124.164627,101.858849 126.176071,102.548103 125.272560,106.246185 
	C123.450455,111.447632 121.628349,116.649078 119.388916,122.297409 
	C119.533691,123.589668 119.678467,124.881927 120.498894,126.555946 
	C122.264603,126.996063 124.036377,127.839920 125.795067,127.813454 
	C142.244873,127.565987 158.708862,127.482208 175.130341,126.619911 
	C179.883591,126.370323 184.513077,123.763199 189.922119,122.113815 
	C192.345062,120.814850 194.768005,119.515884 197.835556,118.056274 
	C198.949585,117.091415 200.063614,116.126549 201.534454,114.848846 
	C201.774048,114.640511 201.995285,114.414246 202.523148,113.846474 
	C202.740829,113.631638 202.956848,113.415131 203.526413,112.881844 
	C203.750519,112.658165 203.965805,112.426308 204.805695,111.932304 
	C206.174850,110.325539 207.880829,108.900429 208.860657,107.083694 
	C217.876419,90.367432 218.436340,72.433731 215.263168,54.342659 
	C214.311996,48.919868 210.640396,43.974247 208.043015,38.204926 
	C207.396820,37.430447 206.750626,36.655964 205.819763,35.500614 
	C205.625259,35.247494 205.405685,35.018394 204.846527,34.481304 
M253.814117,117.790916 
	C253.814117,117.790916 253.665497,117.758705 254.403152,117.719734 
	C255.539871,116.077576 256.676605,114.435417 257.868988,112.884384 
	C257.868988,112.884384 257.773987,112.835632 258.483826,112.588737 
	C258.894348,110.441048 259.842773,108.236923 259.624359,106.155220 
	C258.551910,95.933228 257.298828,85.724777 255.806747,75.555969 
	C255.426727,72.966026 253.940903,70.538338 252.751099,67.693512 
	C252.751099,67.693512 252.740295,67.290756 252.566193,66.601402 
	C250.222366,64.340302 248.056824,63.959133 246.138336,67.133202 
	C246.138336,67.133202 246.204926,67.231293 245.512863,67.426933 
	C244.801178,69.199097 243.683746,70.918541 243.445496,72.752228 
	C242.168472,82.580521 240.987686,92.425514 240.043091,102.290543 
	C239.709702,105.772324 240.138474,109.327103 240.615829,112.919434 
	C240.615829,112.919434 240.955307,113.136345 241.019638,113.837486 
	C242.102615,114.831039 243.185577,115.824593 244.196014,116.824425 
	C244.196014,116.824425 244.207458,116.752541 244.147430,117.499275 
	C245.476593,118.967873 246.805771,120.436478 248.063629,121.922974 
	C248.063629,121.922974 248.090195,121.854424 248.293457,122.447411 
	C252.735123,124.876335 252.370270,121.307640 252.894440,118.919121 
	C252.894440,118.919121 252.769302,118.960243 253.225769,118.608559 
	C253.431244,118.286194 253.636703,117.963829 253.814117,117.790916 
M616.822571,71.419205 
	C616.677979,71.914558 616.533386,72.409912 616.251282,73.845398 
	C616.181519,78.991463 616.070679,84.137383 616.051086,89.283638 
	C616.015747,98.584732 616.099182,107.886711 616.002563,117.186958 
	C615.958557,121.417252 615.206299,124.937943 609.614990,125.408234 
	C605.202942,125.779343 603.796570,129.360352 605.006836,135.649429 
	C604.983215,135.873398 604.959534,136.097351 605.042664,137.010956 
	C609.830994,142.923981 626.087280,140.710907 629.158813,130.497665 
	C630.056091,127.513832 630.777954,124.347847 630.814148,121.256386 
	C630.986938,106.503342 630.941589,91.746880 630.836304,76.992630 
	C630.824280,75.313820 629.949829,73.641167 629.133911,71.700485 
	C629.133911,71.700485 628.946167,71.311096 628.795593,71.035439 
	C628.640686,70.885841 628.461548,70.775543 627.580627,70.399185 
	C624.019104,68.994339 620.512756,68.501564 616.822571,71.419205 
M330.038330,116.995872 
	C330.038330,116.995872 330.025269,117.097420 330.358215,117.747459 
	C333.893799,117.606644 337.429382,117.465820 341.166595,117.051704 
	C341.166595,117.051704 341.486053,116.936493 342.042938,116.525116 
	C342.328003,114.587944 342.825684,112.654449 342.859283,110.712929 
	C342.971405,104.232826 342.784332,97.746040 342.969025,91.269157 
	C343.115509,86.131111 346.445923,82.861229 350.978119,82.932137 
	C355.123230,82.996979 358.025513,86.354057 358.101654,91.458694 
	C358.195862,97.773079 358.114746,104.089928 358.129974,110.405663 
	C358.150757,119.027122 363.004883,121.665688 371.161560,117.100815 
	C371.161560,117.100815 371.482727,116.952713 372.046387,116.537422 
	C371.955139,104.345634 371.986359,92.149940 371.598663,79.967590 
	C371.556091,78.629662 369.109528,77.368240 367.402008,75.868019 
	C367.166656,75.685394 367.015869,75.448868 366.803802,74.609383 
	C366.345093,74.330673 365.886414,74.051971 365.253082,73.739166 
	C365.253082,73.739166 365.201202,73.568993 365.163910,72.887894 
	C360.954681,67.576500 355.161438,68.126137 349.365082,68.567696 
	C344.659210,68.926186 339.934723,69.069878 335.240265,69.530731 
	C333.809021,69.671234 332.450073,70.548080 330.584991,71.207550 
	C330.584991,71.207550 330.098694,71.167168 329.429138,71.486778 
	C328.944763,73.307579 328.061066,75.123985 328.040985,76.949898 
	C327.913544,88.536888 327.940094,100.126221 328.016541,111.714119 
	C328.028198,113.485435 328.561279,115.253326 329.396759,117.043152 
	C329.576874,117.022362 329.756989,117.001579 330.038330,116.995872 
M257.529266,53.750889 
	C258.658997,52.122650 260.606934,50.575981 260.778778,48.852242 
	C261.581268,40.802429 255.628311,35.175503 247.682755,36.078499 
	C242.862747,36.626286 239.942169,39.597599 238.338226,43.932522 
	C236.855011,47.941166 236.916977,51.805462 240.509567,54.816383 
	C244.200302,57.909538 248.230103,60.403931 253.155212,57.924915 
	C254.684860,57.154972 255.621445,55.206783 256.920135,53.926739 
	C256.920135,53.926739 256.792419,53.834728 257.529266,53.750889 
M695.998108,116.420158 
	C696.327148,115.520348 696.937927,114.622040 696.942749,113.720482 
	C697.010742,100.990562 697.036072,88.259872 696.933472,75.530487 
	C696.924377,74.395439 695.954407,73.268127 694.741882,71.610329 
	C690.877136,71.854408 686.136780,68.789948 683.725525,74.525879 
	C670.304016,67.572212 659.320740,68.916046 651.242126,78.500183 
	C643.940552,87.162483 643.562805,99.983360 650.341370,109.069130 
	C658.019104,119.359985 668.872925,121.063271 683.514465,114.439049 
	C686.763672,119.328911 691.302612,117.050240 695.998108,116.420158 
M437.262604,71.717575 
	C433.049927,71.496147 428.497375,69.451523 425.086761,74.144882 
	C419.337280,70.705681 413.216095,68.899651 406.499359,70.502533 
	C392.657135,73.805847 384.507141,87.815575 388.541321,101.296455 
	C392.609833,114.892082 406.196045,121.747498 419.854767,117.185600 
	C421.845001,116.520874 423.991028,115.976097 426.063934,115.979675 
	C430.009949,115.986481 433.955200,116.429375 438.397430,116.100006 
	C438.606415,115.307922 438.994781,114.516464 438.997559,113.723671 
	C439.041656,101.113045 439.067352,88.502068 438.993622,75.891777 
	C438.986389,74.653275 438.299316,73.418747 437.262604,71.717575 
M298.055634,88.486031 
	C296.517090,86.588806 293.434174,84.375969 293.744690,82.856621 
	C294.514709,79.088715 298.357422,79.778534 301.252838,80.232407 
	C303.462799,80.578827 305.557159,81.662704 307.901123,82.488342 
	C309.460815,79.742569 310.915527,77.181595 312.342499,74.669487 
	C306.288605,70.015305 297.655365,68.654602 290.808197,71.182297 
	C285.173889,73.262253 281.625763,77.178192 281.036957,83.282043 
	C280.469147,89.167992 283.583191,93.115082 288.450897,95.794510 
	C291.360809,97.396294 294.716003,98.287628 297.396088,100.173332 
	C299.128235,101.392090 300.001190,103.831947 301.259186,105.724571 
	C299.024109,106.715942 296.705383,108.660927 294.573700,108.473885 
	C291.421326,108.197281 288.401825,106.406197 284.868317,105.089508 
	C283.264801,107.413231 281.533875,109.921623 279.637238,112.670174 
	C287.402039,118.265167 295.356354,120.232864 304.087738,117.557159 
	C309.666992,115.847404 313.014740,111.819000 313.789856,105.989243 
	C314.550842,100.266098 312.216522,95.872787 307.248840,93.026115 
	C304.512756,91.458229 301.581421,90.231133 298.055634,88.486031 
M574.187744,83.524010 
	C574.187744,94.620659 574.187744,105.717316 574.187744,117.047272 
	C578.396362,117.047272 581.983398,117.047272 586.024414,117.047272 
	C586.024414,108.774498 585.963379,100.805939 586.040283,92.838715 
	C586.130554,83.479385 588.492859,81.178261 597.801636,81.473167 
	C599.197083,78.158173 600.641113,74.727707 602.164490,71.108856 
	C595.689209,68.477028 590.596375,70.227440 585.995239,73.980728 
	C583.786438,70.791458 580.288818,70.301071 574.549072,72.102928 
	C574.453430,72.418159 574.278748,72.732269 574.274231,73.048798 
	C574.229370,76.211189 574.212585,79.373985 574.187744,83.524010 
M630.957397,59.041435 
	C631.614319,54.171898 629.286987,51.249207 624.678406,50.497158 
	C620.869629,49.875614 617.671570,51.430134 616.385193,55.306965 
	C615.177063,58.947933 616.485474,62.032070 619.909790,63.694427 
	C624.096313,65.726776 627.675232,64.568970 630.318726,60.704567 
	C630.504028,60.433575 630.607971,60.106869 630.957397,59.041435 
z"/>
<path fill="#EFF9FD" opacity="1.000000" stroke="none" 
	d="
M437.900787,116.691193 
	C433.955200,116.429375 430.009949,115.986481 426.063934,115.979675 
	C423.991028,115.976097 421.845001,116.520874 419.854767,117.185600 
	C406.196045,121.747498 392.609833,114.892082 388.541321,101.296455 
	C384.507141,87.815575 392.657135,73.805847 406.499359,70.502533 
	C413.216095,68.899651 419.337280,70.705681 425.086761,74.144882 
	C428.497375,69.451523 433.049927,71.496147 437.534271,72.392776 
	C437.837555,87.609047 437.869171,102.150116 437.900787,116.691193 
M400.989655,88.916786 
	C397.793823,100.164482 405.190063,109.782028 415.409729,107.667633 
	C421.303192,106.448303 425.522766,101.502075 425.945831,95.317101 
	C426.380310,88.964928 422.626434,83.233444 416.816254,81.377907 
	C410.842834,79.470253 405.351349,81.878273 400.989655,88.916786 
z"/>
<path fill="#F2FAFD" opacity="1.000000" stroke="none" 
	d="
M695.407166,116.802841 
	C691.302612,117.050240 686.763672,119.328911 683.514465,114.439049 
	C668.872925,121.063271 658.019104,119.359985 650.341370,109.069130 
	C643.562805,99.983360 643.940552,87.162483 651.242126,78.500183 
	C659.320740,68.916046 670.304016,67.572212 683.725525,74.525841 
	C686.136780,68.789948 690.877136,71.854408 695.011658,72.322372 
	C695.323364,87.623894 695.365295,102.213364 695.407166,116.802841 
M661.913635,84.386429 
	C657.136108,90.285797 656.507751,96.724709 660.172302,102.231224 
	C663.171387,106.737816 668.933655,108.931496 674.120361,107.475258 
	C679.662964,105.919067 682.859314,102.089027 683.677551,96.555115 
	C684.515137,90.889725 682.782532,85.961823 677.723694,82.813667 
	C672.481079,79.551208 667.327820,80.186256 661.913635,84.386429 
z"/>
<path fill="#EDF7FC" opacity="1.000000" stroke="none" 
	d="
M557.778381,98.795654 
	C557.778381,98.795654 557.353943,98.776993 556.709351,98.759155 
	C545.395142,98.741318 534.725525,98.741318 523.962585,98.741318 
	C525.483154,107.983849 535.873352,111.026924 544.513306,105.186172 
	C544.867798,104.746452 545.001038,104.435318 545.443909,103.981537 
	C547.732849,104.292923 549.712219,104.746933 551.715942,105.175522 
	C551.740356,105.150093 551.689575,105.101250 551.808838,105.375275 
	C552.275024,105.826439 552.622009,106.003571 553.063354,106.384384 
	C553.366943,106.832298 553.632263,106.953362 554.071289,107.124878 
	C554.188843,107.298492 554.594849,107.403282 554.594849,107.403282 
	C554.594849,107.403282 554.658508,107.358910 554.778442,107.616760 
	C555.199585,108.007812 555.500793,108.141006 555.869080,108.487732 
	C556.195618,109.063766 556.454956,109.426277 556.470459,109.935364 
	C555.791199,110.712776 555.355835,111.343590 554.920532,111.974403 
	C554.920532,111.974403 554.989990,111.985451 554.724426,112.026474 
	C554.262268,112.374321 554.065674,112.681145 553.869080,112.987976 
	C553.869080,112.987984 553.991089,112.996811 553.707397,113.000473 
	C553.197815,113.311470 552.971924,113.618805 552.746033,113.926147 
	C552.746033,113.926155 552.894165,113.902763 552.555298,113.862671 
	C551.394165,114.480545 550.571899,115.138512 549.749695,115.796478 
	C549.749695,115.796478 549.897522,115.850319 549.600464,115.805939 
	C548.796875,116.123146 548.290283,116.484726 547.783752,116.846313 
	C547.783752,116.846329 547.880981,116.848557 547.474548,116.819031 
	C540.393555,117.106148 533.719055,117.422798 527.044495,117.739441 
	C527.044495,117.739441 527.080688,117.868668 526.926636,117.576233 
	C524.197998,116.148430 521.623291,115.013054 519.048645,113.877678 
	C519.048645,113.877678 519.011597,113.973297 518.993164,113.701653 
	C518.693909,113.176414 518.413025,112.922821 518.132202,112.669220 
	C518.132202,112.669220 518.136047,112.884186 518.136719,112.585831 
	C517.785156,112.087555 517.432861,111.887634 517.080566,111.687706 
	C517.080566,111.687706 517.082092,111.916565 517.099915,111.617554 
	C516.773315,111.109177 516.428833,110.899811 516.084412,110.690445 
	C516.084412,110.690437 516.128357,110.861404 516.109985,110.535492 
	C515.430481,109.713547 514.769348,109.217522 514.108215,108.721497 
	C514.108215,108.721497 514.101624,108.351303 514.031128,107.901779 
	C513.694153,107.195244 513.427734,106.938225 513.161316,106.681198 
	C513.161316,106.681198 513.177002,106.819229 513.170837,106.440338 
	C510.328857,100.423126 509.463226,94.520645 511.163330,88.410324 
	C511.951508,85.577599 513.178833,82.867043 514.207031,80.101097 
	C514.207031,80.101097 514.061523,80.077873 514.336548,80.051575 
	C514.827087,79.704323 515.042725,79.383362 515.258301,79.062393 
	C515.258301,79.062393 515.061890,79.067963 515.343750,79.055443 
	C515.811218,78.702995 515.996948,78.363068 516.182617,78.023132 
	C516.182617,78.023132 516.057800,78.048828 516.357788,77.992104 
	C517.168518,77.304108 517.679199,76.672829 518.189941,76.041565 
	C518.484436,76.039627 518.721191,75.921761 519.271973,75.400787 
	C519.884583,74.786766 520.125427,74.459930 520.366272,74.133102 
	C520.366272,74.133110 520.195679,74.192696 520.577698,74.188904 
	C530.008362,68.644829 539.162781,68.727737 548.408508,73.668953 
	C548.408508,73.668953 548.467590,73.639969 548.651978,73.939209 
	C556.705322,80.644196 559.747681,88.807472 557.778381,98.795654 
M536.444336,89.318115 
	C539.486084,89.318115 542.527893,89.318115 545.799194,89.318115 
	C543.655579,82.451599 539.768066,79.848869 533.640747,80.462631 
	C528.346008,80.993004 525.150879,83.976433 524.529541,89.317856 
	C528.206482,89.317856 531.842407,89.317856 536.444336,89.318115 
z"/>
<path fill="#EEF8FD" opacity="1.000000" stroke="none" 
	d="
M482.231506,71.162369 
	C482.231506,71.162369 482.658295,71.164680 483.299011,71.198746 
	C487.883667,71.200073 491.827606,71.167328 495.834534,71.464600 
	C494.852631,73.464836 493.807739,75.135071 492.762848,76.805298 
	C492.762848,76.805298 492.949432,76.941330 492.560425,77.001526 
	C489.383698,80.324974 486.596008,83.588234 483.808350,86.851494 
	C483.808350,86.851501 483.935638,86.932823 483.574738,87.010796 
	C481.775574,88.641159 480.337341,90.193550 478.554810,92.117577 
	C484.562012,99.734146 490.371674,107.100243 496.181305,114.466339 
	C496.181305,114.466347 496.190155,114.659248 496.383057,115.064117 
	C495.674316,116.049126 494.789398,117.094116 493.868042,117.127365 
	C490.247711,117.257950 486.615845,117.069908 482.988281,117.000168 
	C482.988281,117.000175 482.995514,117.004478 482.886932,116.685440 
	C477.926331,109.859352 473.074310,103.352295 468.222290,96.845245 
	C467.819275,97.019089 467.416260,97.192940 467.013245,97.366783 
	C467.013245,103.883621 467.013245,110.400467 467.013245,116.917313 
	C465.897064,117.230484 464.798370,117.646606 463.661835,117.840050 
	C456.425781,119.071625 455.230591,118.046204 455.227386,110.646751 
	C455.219727,92.988182 455.400757,75.326691 455.109344,57.672920 
	C455.027405,52.709751 456.219116,50.415352 461.436676,51.321613 
	C463.062653,51.604034 464.737732,51.603565 466.704773,52.381004 
	C467.019226,64.454536 467.019226,75.879654 467.019226,87.304779 
	C467.463074,87.406647 467.906891,87.508514 468.350739,87.610374 
	C469.608459,85.768036 470.866180,83.925690 472.123932,82.083344 
	C472.123932,82.083351 472.045319,82.040329 472.312317,82.010910 
	C472.812988,81.688637 473.046692,81.395775 473.280365,81.102913 
	C473.280365,81.102913 473.170258,81.152588 473.503601,81.069344 
	C475.597504,78.679665 477.358063,76.373238 479.118591,74.066803 
	C479.118591,74.066803 479.045013,74.019775 479.310791,74.001358 
	C479.825531,73.702789 480.074524,73.422646 480.323486,73.142502 
	C480.323486,73.142494 480.126740,73.141014 480.418518,73.140182 
	C480.907013,72.794746 481.103760,72.450150 481.300537,72.105560 
	C481.300537,72.105560 481.092957,72.095459 481.361664,72.102295 
	C481.830750,71.793549 482.031128,71.477959 482.231506,71.162369 
z"/>
<path fill="#EEF9FD" opacity="1.000000" stroke="none" 
	d="
M366.949585,75.158447 
	C367.015869,75.448868 367.166656,75.685394 367.689178,76.331207 
	C369.106079,81.053345 370.962189,85.269669 371.215057,89.580048 
	C371.748749,98.678200 371.443665,107.825546 371.482727,116.952713 
	C371.482727,116.952713 371.161560,117.100815 370.622650,117.176804 
	C366.843353,117.252792 363.602936,117.252792 359.968048,117.252792 
	C359.968048,107.825165 360.052246,99.363129 359.940735,90.903664 
	C359.855652,84.447823 356.379486,80.585190 350.939819,80.538651 
	C345.245728,80.489944 341.563507,84.409203 341.479950,90.986542 
	C341.370117,99.635101 341.474060,108.286385 341.486053,116.936493 
	C341.486053,116.936493 341.166595,117.051704 340.620239,117.131577 
	C336.724335,117.173439 333.374786,117.135429 330.025269,117.097420 
	C330.025269,117.097420 330.038330,116.995872 330.020691,116.588257 
	C329.897491,115.118752 329.791931,114.056870 329.742554,112.529755 
	C329.759216,99.388359 329.719727,86.712173 329.767731,73.771690 
	C329.801941,73.329605 329.748657,73.151817 329.777344,72.675179 
	C329.939117,71.973282 330.018921,71.570221 330.098694,71.167168 
	C330.098694,71.167168 330.584991,71.207550 331.244446,71.252716 
	C335.267792,71.642609 338.631714,71.987328 343.415222,72.477516 
	C349.731354,68.425041 357.487244,68.918785 365.201202,73.568993 
	C365.201202,73.568993 365.253082,73.739166 365.456818,74.000908 
	C366.090240,74.561249 366.519897,74.859848 366.949585,75.158447 
z"/>
<path fill="#EDF8FD" opacity="1.000000" stroke="none" 
	d="
M298.396851,88.668213 
	C301.581421,90.231133 304.512756,91.458229 307.248840,93.026115 
	C312.216522,95.872787 314.550842,100.266098 313.789856,105.989243 
	C313.014740,111.819000 309.666992,115.847404 304.087738,117.557159 
	C295.356354,120.232864 287.402039,118.265167 279.637238,112.670174 
	C281.533875,109.921623 283.264801,107.413231 284.868317,105.089508 
	C288.401825,106.406197 291.421326,108.197281 294.573700,108.473885 
	C296.705383,108.660927 299.024109,106.715942 301.259186,105.724579 
	C300.001190,103.831947 299.128235,101.392090 297.396088,100.173332 
	C294.716003,98.287628 291.360809,97.396294 288.450897,95.794510 
	C283.583191,93.115082 280.469147,89.167992 281.036957,83.282043 
	C281.625763,77.178192 285.173889,73.262253 290.808197,71.182297 
	C297.655365,68.654602 306.288605,70.015305 312.342499,74.669487 
	C310.915527,77.181595 309.460815,79.742569 307.901123,82.488342 
	C305.557159,81.662704 303.462799,80.578827 301.252838,80.232407 
	C298.357422,79.778534 294.514709,79.088715 293.744690,82.856621 
	C293.434174,84.375969 296.517090,86.588806 298.396851,88.668213 
z"/>
<path fill="#F3FCFE" opacity="1.000000" stroke="none" 
	d="
M604.935913,136.321289 
	C604.959534,136.097351 604.983215,135.873398 605.210449,135.031845 
	C606.398376,132.002029 607.382751,129.589798 608.315002,127.305183 
	C615.638245,128.122406 617.773499,126.677246 617.813416,120.369293 
	C617.913330,104.584763 617.755371,88.798607 617.856995,72.707672 
	C618.527100,71.960587 619.041138,71.518929 619.831177,71.194038 
	C620.886108,71.224289 621.664978,71.137764 622.841064,71.188324 
	C625.140930,71.320625 627.043579,71.315857 628.946167,71.311096 
	C628.946167,71.311096 629.133911,71.700485 629.220947,72.291046 
	C629.284241,88.672112 629.303528,104.462822 629.224426,120.253052 
	C629.147339,135.643478 619.056213,142.286514 604.935913,136.321289 
z"/>
<path fill="#ECF7FD" opacity="1.000000" stroke="none" 
	d="
M574.187805,83.030334 
	C574.212585,79.373985 574.229370,76.211189 574.274231,73.048798 
	C574.278748,72.732269 574.453430,72.418159 574.550598,72.103394 
	C580.288818,70.301071 583.786438,70.791458 585.995239,73.980728 
	C590.596375,70.227440 595.689209,68.477028 602.164490,71.108856 
	C600.641113,74.727707 599.197083,78.158173 597.801636,81.473167 
	C588.492859,81.178261 586.130554,83.479385 586.040283,92.838715 
	C585.963379,100.805939 586.024414,108.774498 586.024414,117.047272 
	C581.983398,117.047272 578.396362,117.047272 574.187744,117.047272 
	C574.187744,105.717316 574.187744,94.620659 574.187805,83.030334 
z"/>
<path fill="#396FB6" opacity="1.000000" stroke="none" 
	d="
M125.836296,105.849266 
	C126.176071,102.548103 124.164627,101.858849 121.493416,102.012917 
	C106.845253,102.857780 109.129730,100.022308 109.042374,88.888199 
	C108.944557,76.420898 108.989220,63.952118 109.034630,51.484211 
	C109.061440,44.122059 110.131561,43.090881 117.357208,43.051914 
	C119.806923,43.038704 122.256760,43.049820 124.997513,43.049820 
	C124.644196,39.821480 124.364708,37.267715 124.406464,34.507530 
	C125.793915,36.563583 126.860115,38.826057 127.945099,41.067699 
	C127.963882,41.046867 127.908516,41.051304 127.934204,41.458420 
	C128.304077,45.031441 130.485458,45.172939 133.014038,45.152187 
	C142.315506,45.075848 151.623627,44.921692 160.918427,45.182457 
	C169.481094,45.422688 178.138245,45.622013 185.911896,50.108437 
	C185.943161,50.053379 185.849106,50.138168 185.989349,50.405800 
	C186.811340,51.390610 187.493088,52.107784 187.793549,52.842220 
	C182.585358,51.221401 177.835785,48.507816 172.916519,48.154129 
	C160.006989,47.225960 147.023209,47.338314 134.069702,47.008850 
	C130.631409,46.921398 129.959000,48.975811 129.967697,51.853096 
	C130.009430,65.664680 130.034103,79.476738 129.953094,93.287979 
	C129.933319,96.657753 131.251328,98.111015 134.673676,98.081062 
	C146.321060,97.979103 157.982574,98.354637 169.614349,97.910210 
	C182.900848,97.402550 190.704849,90.980629 192.578964,79.324005 
	C193.751160,72.033211 193.444138,64.739456 189.840240,57.926174 
	C189.012283,56.360889 188.703339,54.521072 188.472473,52.948837 
	C190.847168,57.747444 192.904953,62.404804 194.921356,67.384125 
	C194.961655,68.129257 195.043304,68.552444 195.045914,69.417274 
	C195.009766,72.247108 195.052689,74.635292 194.999481,77.330841 
	C194.906281,78.064766 194.909210,78.491333 194.716034,79.237595 
	C192.583893,83.996887 190.647888,88.436470 188.517731,92.951363 
	C188.079361,93.191620 187.930496,93.418991 187.544586,93.841949 
	C181.424377,98.513939 174.563522,99.882103 167.515945,100.053085 
	C156.027466,100.331802 144.528290,100.249962 133.034576,100.176178 
	C130.158493,100.157715 128.051331,100.594162 127.928940,104.137627 
	C127.821754,104.245277 127.823990,104.549103 127.603401,104.741058 
	C127.015305,105.366913 126.647797,105.800812 126.169258,106.138374 
	C126.058235,106.042046 125.836296,105.849266 125.836296,105.849266 
M110.954269,69.500031 
	C110.954269,79.563713 110.954269,89.627396 110.954269,99.761673 
	C117.018295,99.761673 122.263268,99.761673 127.773239,99.761673 
	C127.773239,81.631866 127.773239,63.786877 127.773239,45.744331 
	C122.120667,45.744331 116.775719,45.744331 110.954269,45.744331 
	C110.954269,53.596577 110.954269,61.048309 110.954269,69.500031 
z"/>
<path fill="#EEF8FD" opacity="1.000000" stroke="none" 
	d="
M240.955307,113.136345 
	C240.955307,113.136345 240.615829,112.919434 240.378113,112.487442 
	C240.706879,108.983917 241.418198,105.930916 241.814178,102.837547 
	C243.332657,90.975822 244.749893,79.101143 246.204926,67.231293 
	C246.204926,67.231293 246.138336,67.133202 246.590637,67.120201 
	C248.942062,67.168381 250.841187,67.229568 252.740295,67.290756 
	C252.740295,67.290756 252.751099,67.693512 252.825424,68.294266 
	C254.524506,83.541885 256.149261,98.188759 257.773987,112.835632 
	C257.773987,112.835632 257.868988,112.884384 257.546692,112.991356 
	C256.038055,114.651787 254.851776,116.205246 253.665497,117.758698 
	C253.665497,117.758705 253.814117,117.790916 253.550232,117.842621 
	C253.113983,118.249634 252.941635,118.604935 252.769302,118.960243 
	C252.769302,118.960243 252.894440,118.919121 252.576263,118.997498 
	C250.868805,120.002052 249.479492,120.928238 248.090195,121.854424 
	C248.090195,121.854424 248.063629,121.922974 248.047821,121.582031 
	C246.757172,119.744911 245.482315,118.248726 244.207458,116.752541 
	C244.207458,116.752541 244.196014,116.824425 244.145798,116.507240 
	C243.048828,115.172150 242.002060,114.154251 240.955307,113.136345 
z"/>
<path fill="#4D80BB" opacity="1.000000" stroke="none" 
	d="
M341.764496,116.730804 
	C341.474060,108.286385 341.370117,99.635101 341.479950,90.986542 
	C341.563507,84.409203 345.245728,80.489944 350.939819,80.538651 
	C356.379486,80.585190 359.855652,84.447823 359.940735,90.903664 
	C360.052246,99.363129 359.968048,107.825165 359.968048,117.252792 
	C363.602936,117.252792 366.843353,117.252792 370.530884,117.327942 
	C363.004883,121.665688 358.150757,119.027122 358.129974,110.405663 
	C358.114746,104.089928 358.195862,97.773079 358.101654,91.458694 
	C358.025513,86.354057 355.123230,82.996979 350.978119,82.932137 
	C346.445923,82.861229 343.115509,86.131111 342.969025,91.269157 
	C342.784332,97.746040 342.971405,104.232826 342.859283,110.712929 
	C342.825684,112.654449 342.328003,114.587944 341.764496,116.730804 
z"/>
<path fill="#E7F6FC" opacity="1.000000" stroke="none" 
	d="
M630.853577,59.423763 
	C630.607971,60.106869 630.504028,60.433575 630.318726,60.704567 
	C627.675232,64.568970 624.096313,65.726776 619.909790,63.694427 
	C616.485474,62.032070 615.177063,58.947933 616.385193,55.306965 
	C617.671570,51.430134 620.869629,49.875614 624.678406,50.497158 
	C629.286987,51.249207 631.614319,54.171898 630.853577,59.423763 
z"/>
<path fill="#497DC2" opacity="1.000000" stroke="none" 
	d="
M604.989258,136.666122 
	C619.056213,142.286514 629.147339,135.643478 629.224426,120.253052 
	C629.303528,104.462822 629.284241,88.672112 629.391663,72.423630 
	C629.949829,73.641167 630.824280,75.313820 630.836304,76.992630 
	C630.941589,91.746880 630.986938,106.503342 630.814148,121.256386 
	C630.777954,124.347847 630.056091,127.513832 629.158813,130.497665 
	C626.087280,140.710907 609.830994,142.923981 604.989258,136.666122 
z"/>
<path fill="#396FB6" opacity="1.000000" stroke="none" 
	d="
M121.978432,28.085970 
	C121.223999,27.247252 120.255554,26.520052 119.750748,25.551262 
	C116.984344,20.242153 118.150513,18.158564 124.114990,18.057859 
	C132.110565,17.922859 140.120224,17.746140 148.105103,18.061665 
	C159.717255,18.520519 171.326736,19.238289 182.904724,20.227535 
	C185.564682,20.454807 188.091995,22.234711 190.817505,23.682520 
	C190.954681,24.064960 190.730759,24.336748 190.357437,24.269138 
	C185.640274,23.178894 181.296432,22.156261 176.653717,21.019114 
	C175.931381,20.897604 175.507919,20.890610 174.721298,20.674870 
	C156.275940,20.466124 138.193741,20.466124 119.982552,20.466124 
	C120.651955,23.021749 121.315193,25.553858 121.978432,28.085970 
z"/>
<path fill="#4377B6" opacity="1.000000" stroke="none" 
	d="
M617.700867,73.013100 
	C617.755371,88.798607 617.913330,104.584763 617.813416,120.369293 
	C617.773499,126.677246 615.638245,128.122406 608.315002,127.305183 
	C607.382751,129.589798 606.398376,132.002029 605.202026,134.694153 
	C603.796570,129.360352 605.202942,125.779343 609.614990,125.408234 
	C615.206299,124.937943 615.958557,121.417252 616.002563,117.186958 
	C616.099182,107.886711 616.015747,98.584732 616.051086,89.283638 
	C616.070679,84.137383 616.181519,78.991463 616.532837,73.404068 
	C617.109009,72.995865 617.404480,73.012657 617.700867,73.013100 
z"/>
<path fill="#396FB6" opacity="1.000000" stroke="none" 
	d="
M208.215103,38.810020 
	C210.640396,43.974247 214.311996,48.919868 215.263168,54.342659 
	C218.436340,72.433731 217.876419,90.367432 208.860657,107.083694 
	C207.880829,108.900429 206.174850,110.325539 204.362244,111.938721 
	C203.918793,111.945129 203.663940,111.705452 203.798203,111.391510 
	C210.433990,102.842415 213.677856,93.430244 214.195312,82.691101 
	C214.296234,81.964180 214.281998,81.537544 214.470978,80.742355 
	C214.499725,73.891533 214.325241,67.409264 214.196045,60.605175 
	C214.144958,59.864456 214.048630,59.445557 214.011642,58.615318 
	C211.933563,51.900509 209.796112,45.597046 207.797623,39.172520 
	C207.936584,39.051456 208.215103,38.810024 208.215103,38.810020 
z"/>
<path fill="#3871BB" opacity="1.000000" stroke="none" 
	d="
M256.829559,53.798012 
	C255.621445,55.206783 254.684860,57.154972 253.155212,57.924915 
	C248.230103,60.403931 244.200302,57.909538 240.509567,54.816383 
	C236.916977,51.805462 236.855011,47.941166 238.338226,43.932522 
	C239.942169,39.597599 242.862747,36.626286 247.682755,36.078499 
	C255.628311,35.175503 261.581268,40.802429 260.778778,48.852242 
	C260.606934,50.575981 258.658997,52.122650 257.273621,53.434494 
	C257.410828,52.384884 257.878693,51.681538 258.184418,50.913628 
	C260.266296,45.684147 257.927124,40.136513 252.843994,38.174496 
	C247.996552,36.303448 242.387329,38.755760 240.453674,43.591427 
	C238.420731,48.675426 240.957642,54.066135 246.187485,56.208874 
	C250.382156,57.927483 253.566818,55.844997 256.829559,53.798012 
z"/>
<path fill="#396FB6" opacity="1.000000" stroke="none" 
	d="
M189.199295,122.236862 
	C184.513077,123.763199 179.883591,126.370323 175.130341,126.619911 
	C158.708862,127.482208 142.244873,127.565987 125.795067,127.813454 
	C124.036377,127.839920 122.264603,126.996063 120.234055,126.288162 
	C119.969223,126.020378 120.113846,125.865303 120.573799,125.824585 
	C134.672852,125.779655 148.320038,126.052223 161.947586,125.653572 
	C168.684082,125.456505 175.384384,124.021927 182.419159,123.151993 
	C183.134384,123.013893 183.531509,122.871078 184.285889,122.739075 
	C186.022476,122.406044 187.401810,122.062195 188.885956,121.847763 
	C188.990768,121.977173 189.199295,122.236862 189.199295,122.236862 
z"/>
<path fill="#336AB3" opacity="1.000000" stroke="none" 
	d="
M544.291992,105.314758 
	C535.873352,111.026924 525.483154,107.983849 523.962585,98.741318 
	C534.725525,98.741318 545.395142,98.741318 556.518616,98.852669 
	C556.508667,99.299477 556.044861,99.634933 554.974365,100.091530 
	C553.040955,100.594795 551.714233,100.976921 550.454834,101.339622 
	C550.932190,102.829979 551.311890,104.015465 551.691589,105.200943 
	C549.712219,104.746933 547.732849,104.292923 545.357300,103.914658 
	C544.961121,103.990417 544.784058,103.861618 544.759399,103.489456 
	C539.371460,98.754288 533.589050,101.675446 527.721008,102.291611 
	C529.513977,104.064079 531.534607,105.593987 533.635681,105.713852 
	C537.024048,105.907150 540.465454,105.171341 543.984741,104.951035 
	C544.085022,105.074081 544.291992,105.314758 544.291992,105.314758 
z"/>
<path fill="#DFF2FD" opacity="1.000000" stroke="none" 
	d="
M122.045807,28.228317 
	C121.315193,25.553858 120.651955,23.021749 119.982552,20.466124 
	C138.193741,20.466124 156.275940,20.466124 174.367020,20.898876 
	C169.926163,21.376949 165.475876,21.491032 161.026825,21.454050 
	C149.893494,21.361517 138.759048,21.038002 127.628624,21.153255 
	C123.620934,21.194756 122.824905,23.513750 124.137711,27.331593 
	C125.681343,31.820696 126.687233,36.494705 127.926323,41.088531 
	C126.860115,38.826057 125.793915,36.563583 124.450279,34.093658 
	C124.172852,33.886204 124.128906,33.938419 124.155495,33.570076 
	C123.482681,31.695919 122.783272,30.190100 122.083870,28.684280 
	C122.083870,28.684280 122.113174,28.370668 122.045807,28.228317 
z"/>
<path fill="#326CB8" opacity="1.000000" stroke="none" 
	d="
M258.128906,112.712189 
	C256.149261,98.188759 254.524506,83.541885 252.931458,68.465561 
	C253.940903,70.538338 255.426727,72.966026 255.806747,75.555969 
	C257.298828,85.724777 258.551910,95.933228 259.624359,106.155220 
	C259.842773,108.236923 258.894348,110.441048 258.128906,112.712189 
z"/>
<path fill="#1F5CAC" opacity="1.000000" stroke="none" 
	d="
M695.702637,116.611496 
	C695.365295,102.213364 695.323364,87.623894 695.356079,72.585823 
	C695.954407,73.268127 696.924377,74.395439 696.933472,75.530487 
	C697.036072,88.259872 697.010742,100.990562 696.942749,113.720482 
	C696.937927,114.622040 696.327148,115.520348 695.702637,116.611496 
z"/>
<path fill="#497DC2" opacity="1.000000" stroke="none" 
	d="
M467.337128,116.743073 
	C467.013245,110.400467 467.013245,103.883621 467.013245,97.366783 
	C467.416260,97.192940 467.819275,97.019089 468.222290,96.845245 
	C473.074310,103.352295 477.926331,109.859352 482.888977,116.689117 
	C480.657471,114.767639 478.230804,112.603729 475.998413,110.255180 
	C474.023621,108.177635 472.265137,105.894524 469.787811,102.965103 
	C468.947418,108.340553 468.304230,112.454697 467.337128,116.743073 
z"/>
<path fill="#326CB8" opacity="1.000000" stroke="none" 
	d="
M245.858887,67.329117 
	C244.749893,79.101143 243.332657,90.975822 241.814178,102.837547 
	C241.418198,105.930916 240.706879,108.983917 240.179840,112.451996 
	C240.138474,109.327103 239.709702,105.772324 240.043091,102.290543 
	C240.987686,92.425514 242.168472,82.580521 243.445496,72.752228 
	C243.683746,70.918541 244.801178,69.199097 245.858887,67.329117 
z"/>
<path fill="#1F5CAC" opacity="1.000000" stroke="none" 
	d="
M329.680237,74.035995 
	C329.719727,86.712173 329.759216,99.388359 329.560425,112.824310 
	C329.165802,114.730316 329.009491,115.876556 328.853210,117.022797 
	C328.561279,115.253326 328.028198,113.485435 328.016541,111.714119 
	C327.940094,100.126221 327.913544,88.536888 328.040985,76.949898 
	C328.061066,75.123985 328.944763,73.307579 329.763916,71.326973 
	C330.018921,71.570221 329.939117,71.973282 329.653381,72.781769 
	C329.301910,73.532997 329.379517,73.815926 329.680237,74.035995 
z"/>
<path fill="#4D80BB" opacity="1.000000" stroke="none" 
	d="
M371.764557,116.745071 
	C371.443665,107.825546 371.748749,98.678200 371.215057,89.580048 
	C370.962189,85.269669 369.106079,81.053345 367.877167,76.432869 
	C369.109528,77.368240 371.556091,78.629662 371.598663,79.967590 
	C371.986359,92.149940 371.955139,104.345634 371.764557,116.745071 
z"/>
<path fill="#346DB7" opacity="1.000000" stroke="none" 
	d="
M471.735168,81.991310 
	C470.866180,83.925690 469.608459,85.768036 468.350739,87.610374 
	C467.906891,87.508514 467.463074,87.406647 467.019226,87.304779 
	C467.019226,75.879654 467.019226,64.454536 467.068756,52.577934 
	C467.732391,53.859001 468.819244,55.576099 468.876465,57.326839 
	C469.091522,63.908405 468.818054,70.507126 469.084198,77.084991 
	C469.150269,78.717590 470.556335,80.295975 471.735168,81.991310 
z"/>
<path fill="#497DC2" opacity="1.000000" stroke="none" 
	d="
M496.264679,114.106461 
	C490.371674,107.100243 484.562012,99.734146 478.554810,92.117577 
	C480.337341,90.193550 481.775574,88.641159 483.523621,86.955215 
	C480.910278,92.399223 483.806549,96.252625 487.280090,100.403648 
	C490.713928,104.507217 493.357697,109.271904 496.264679,114.106461 
z"/>
<path fill="#4D80BB" opacity="1.000000" stroke="none" 
	d="
M365.182556,73.228439 
	C357.487244,68.918785 349.731354,68.425041 343.415222,72.477516 
	C338.631714,71.987328 335.267792,71.642609 331.480957,71.192795 
	C332.450073,70.548080 333.809021,69.671234 335.240265,69.530731 
	C339.934723,69.069878 344.659210,68.926186 349.365082,68.567696 
	C355.161438,68.126137 360.954681,67.576500 365.182556,73.228439 
z"/>
<path fill="#336AB3" opacity="1.000000" stroke="none" 
	d="
M548.376404,73.304825 
	C539.162781,68.727737 530.008362,68.644829 520.609375,74.273537 
	C520.587402,73.626953 520.724426,72.675323 521.273499,72.189941 
	C527.892761,66.338829 542.642944,66.782906 548.376404,73.304825 
z"/>
<path fill="#336AB3" opacity="1.000000" stroke="none" 
	d="
M513.864380,80.190819 
	C513.178833,82.867043 511.951508,85.577599 511.163330,88.410324 
	C509.463226,94.520645 510.328857,100.423126 513.239624,106.430557 
	C508.450012,105.861580 509.526245,101.323608 508.899078,98.424248 
	C507.477661,91.853119 508.449188,85.424232 513.864380,80.190819 
z"/>
<path fill="#336AB3" opacity="1.000000" stroke="none" 
	d="
M558.137207,98.678955 
	C559.747681,88.807472 556.705322,80.644196 548.652344,73.972122 
	C549.672791,74.027412 551.065125,74.065369 552.050415,74.717911 
	C557.354370,78.230850 563.043579,93.029953 558.137207,98.678955 
z"/>
<path fill="#2B60A9" opacity="1.000000" stroke="none" 
	d="
M438.149109,116.395599 
	C437.869171,102.150116 437.837555,87.609047 437.866882,72.625168 
	C438.299316,73.418747 438.986389,74.653275 438.993622,75.891777 
	C439.067352,88.502068 439.041656,101.113045 438.997559,113.723671 
	C438.994781,114.516464 438.606415,115.307922 438.149109,116.395599 
z"/>
<path fill="#336AB3" opacity="1.000000" stroke="none" 
	d="
M527.276245,118.030441 
	C533.719055,117.422798 540.393555,117.106148 547.474182,116.770409 
	C545.529663,117.865929 543.179016,118.980537 540.141602,120.158607 
	C538.967468,120.476547 538.480042,120.731018 537.992676,120.985481 
	C534.497803,120.097458 531.002869,119.209442 527.276245,118.030441 
z"/>
<path fill="#497DC2" opacity="1.000000" stroke="none" 
	d="
M483.145325,117.329803 
	C486.615845,117.069908 490.247711,117.257950 493.868042,117.127365 
	C494.789398,117.094116 495.674316,116.049126 496.471558,115.102676 
	C499.328583,116.694717 497.808685,118.400513 495.566681,118.500786 
	C491.499237,118.682693 487.392609,117.988152 483.145325,117.329803 
z"/>
<path fill="#396FB6" opacity="1.000000" stroke="none" 
	d="
M119.806236,121.850525 
	C121.628349,116.649078 123.450455,111.447632 125.554428,106.047729 
	C125.836296,105.849266 126.058235,106.042046 126.164948,106.514984 
	C124.255653,112.052155 122.239639,117.116379 120.119377,122.097969 
	C120.015129,122.015327 119.806236,121.850525 119.806236,121.850525 
z"/>
<path fill="#497DC2" opacity="1.000000" stroke="none" 
	d="
M484.153687,86.802956 
	C486.596008,83.588234 489.383698,80.324974 492.476227,76.922470 
	C492.235535,81.946846 488.264740,84.265480 484.153687,86.802956 
z"/>
<path fill="#346DB7" opacity="1.000000" stroke="none" 
	d="
M495.771545,71.134583 
	C491.827606,71.167328 487.883667,71.200073 483.497314,71.119888 
	C487.404694,68.511253 491.887695,68.125839 496.434998,70.541618 
	C496.155090,70.995583 495.963318,71.065086 495.771545,71.134583 
z"/>
<path fill="#4D80BB" opacity="1.000000" stroke="none" 
	d="
M330.191742,117.422440 
	C333.374786,117.135429 336.724335,117.173439 340.519409,117.268219 
	C337.429382,117.465820 333.893799,117.606644 330.191742,117.422440 
z"/>
<path fill="#1D67CC" opacity="1.000000" stroke="none" 
	d="
M551.715942,105.175522 
	C551.311890,104.015465 550.932190,102.829979 550.454834,101.339622 
	C551.714233,100.976921 553.040955,100.594795 554.698608,100.182915 
	C555.019226,101.815315 555.009094,103.477463 554.806030,105.702087 
	C554.360229,106.461601 554.140381,106.690506 553.953796,106.951263 
	C553.632263,106.953362 553.366943,106.832298 552.890137,106.161209 
	C552.311523,105.523331 552.000549,105.312294 551.689575,105.101257 
	C551.689575,105.101250 551.740356,105.150093 551.715942,105.175522 
z"/>
<path fill="#346DB7" opacity="1.000000" stroke="none" 
	d="
M478.759155,74.085304 
	C477.358063,76.373238 475.597504,78.679665 473.529907,81.123711 
	C474.948517,78.875481 476.674133,76.489647 478.759155,74.085304 
z"/>
<path fill="#396FB6" opacity="1.000000" stroke="none" 
	d="
M191.066315,23.928791 
	C193.760330,25.258963 196.342728,26.725307 198.937592,28.634230 
	C198.950043,29.076809 198.715225,29.324339 198.412201,29.195011 
	C196.791672,28.308645 195.474167,27.551607 194.102661,26.861486 
	C194.048645,26.928404 194.181580,26.819305 194.012344,26.561443 
	C192.805664,25.647972 191.768204,24.992361 190.730759,24.336748 
	C190.730759,24.336748 190.954681,24.064960 191.066315,23.928791 
z"/>
<path fill="#4377B6" opacity="1.000000" stroke="none" 
	d="
M622.443848,71.051239 
	C621.664978,71.137764 620.886108,71.224289 619.434204,71.174698 
	C618.237122,71.034950 617.713074,71.031311 617.189026,71.027664 
	C620.512756,68.501564 624.019104,68.994339 627.436768,70.606964 
	C625.676575,70.893578 624.060242,70.972412 622.443848,71.051239 
z"/>
<path fill="#326CB8" opacity="1.000000" stroke="none" 
	d="
M252.653244,66.946075 
	C250.841187,67.229568 248.942062,67.168381 246.638977,67.154533 
	C248.056824,63.959133 250.222366,64.340302 252.653244,66.946075 
z"/>
<path fill="#336AB3" opacity="1.000000" stroke="none" 
	d="
M519.096558,114.172272 
	C521.623291,115.013054 524.197998,116.148430 526.990967,117.557007 
	C525.401855,117.597206 523.594360,117.364204 521.252563,116.868668 
	C520.500000,116.382942 520.259338,116.187317 519.996338,116.019257 
	C519.712402,115.501801 519.428406,114.984337 519.096558,114.172272 
z"/>
<path fill="#396FB6" opacity="1.000000" stroke="none" 
	d="
M197.190948,118.216919 
	C194.768005,119.515884 192.345062,120.814850 189.560699,122.175339 
	C189.199295,122.236862 188.990768,121.977173 189.124924,121.632668 
	C190.544327,120.561340 191.829559,119.834518 193.071655,119.067551 
	C193.028519,119.027397 193.089371,119.128326 193.416382,119.091118 
	C194.729538,118.588806 195.715698,118.123711 196.824371,117.797974 
	C196.946899,117.937325 197.190948,118.216919 197.190948,118.216919 
z"/>
<path fill="#326CB8" opacity="1.000000" stroke="none" 
	d="
M248.191833,122.150917 
	C249.479492,120.928238 250.868805,120.002052 252.554779,118.935242 
	C252.370270,121.307640 252.735123,124.876335 248.191833,122.150917 
z"/>
<path fill="#497DC2" opacity="1.000000" stroke="none" 
	d="
M495.834534,71.464600 
	C495.963318,71.065086 496.155090,70.995583 496.640900,70.841263 
	C495.783356,72.734474 494.631775,74.712486 493.121521,76.747910 
	C493.807739,75.135071 494.852631,73.464836 495.834534,71.464600 
z"/>
<path fill="#326CB8" opacity="1.000000" stroke="none" 
	d="
M244.177444,117.125908 
	C245.482315,118.248726 246.757172,119.744911 248.083481,121.573090 
	C246.805771,120.436478 245.476593,118.967873 244.177444,117.125908 
z"/>
<path fill="#326CB8" opacity="1.000000" stroke="none" 
	d="
M254.034332,117.739212 
	C254.851776,116.205246 256.038055,114.651787 257.518860,112.945793 
	C256.676605,114.435417 255.539871,116.077576 254.034332,117.739212 
z"/>
<path fill="#1D67CC" opacity="1.000000" stroke="none" 
	d="
M556.714355,109.788788 
	C556.454956,109.426277 556.195618,109.063766 555.943115,108.167999 
	C555.989502,107.419121 556.028992,107.203514 556.068542,106.987900 
	C557.894531,107.690239 559.732788,108.387276 557.317322,110.577042 
	C556.870667,110.196877 556.792542,109.992836 556.714355,109.788788 
z"/>
<path fill="#396FB6" opacity="1.000000" stroke="none" 
	d="
M200.191315,29.774765 
	C201.484650,30.896341 202.777985,32.017918 204.041473,33.569000 
	C204.011612,33.998508 203.809204,34.178593 203.565613,34.052231 
	C202.878326,33.627098 202.434616,33.328331 201.998215,33.011055 
	C202.005524,32.992550 201.967621,33.004719 201.902130,32.761814 
	C201.556702,32.355804 201.276749,32.192703 201.002350,32.012020 
	C201.007874,31.994444 200.973450,32.007576 200.896027,31.744055 
	C200.474869,31.058527 200.131134,30.636520 199.888565,30.104757 
	C199.989746,29.995003 200.191315,29.774765 200.191315,29.774765 
z"/>
<path fill="#326CB8" opacity="1.000000" stroke="none" 
	d="
M240.987473,113.486916 
	C242.002060,114.154251 243.048828,115.172150 244.182068,116.504097 
	C243.185577,115.824593 242.102615,114.831039 240.987473,113.486916 
z"/>
<path fill="#396FB6" opacity="1.000000" stroke="none" 
	d="
M201.177643,115.161690 
	C200.063614,116.126549 198.949585,117.091415 197.513245,118.136597 
	C197.190948,118.216919 196.946899,117.937325 197.004013,117.560883 
	C197.762695,116.507515 198.464279,115.830605 199.115936,115.107491 
	C199.066040,115.061295 199.133957,115.179123 199.405212,115.130188 
	C200.014114,114.939278 200.351730,114.797295 200.811066,114.782272 
	C200.932770,114.909218 201.177643,115.161697 201.177643,115.161690 
z"/>
<path fill="#396FB6" opacity="1.000000" stroke="none" 
	d="
M119.896233,126.097282 
	C119.678467,124.881927 119.533691,123.589668 119.597580,122.073967 
	C119.806236,121.850525 120.015129,122.015327 120.114914,122.470657 
	C120.181076,123.905762 120.147461,124.885529 120.113846,125.865303 
	C120.113846,125.865303 119.969223,126.020378 119.896233,126.097282 
z"/>
<path fill="#396FB6" opacity="1.000000" stroke="none" 
	d="
M122.062149,29.072903 
	C122.783272,30.190100 123.482681,31.695919 124.189453,33.570686 
	C123.478020,32.446938 122.759216,30.954231 122.062149,29.072903 
z"/>
<path fill="#497DC2" opacity="1.000000" stroke="none" 
	d="
M622.841064,71.188316 
	C624.060242,70.972412 625.676575,70.893578 627.775574,70.759644 
	C628.461548,70.775543 628.640686,70.885841 628.870850,71.173264 
	C627.043579,71.315857 625.140930,71.320625 622.841064,71.188316 
z"/>
<path fill="#497DC2" opacity="1.000000" stroke="none" 
	d="
M617.005798,71.223434 
	C617.713074,71.031311 618.237122,71.034950 619.158142,71.057938 
	C619.041138,71.518929 618.527100,71.960587 617.856995,72.707672 
	C617.404480,73.012657 617.109009,72.995865 616.601562,72.933998 
	C616.533386,72.409912 616.677979,71.914558 617.005798,71.223434 
z"/>
<path fill="#336AB3" opacity="1.000000" stroke="none" 
	d="
M550.106628,115.820572 
	C550.571899,115.138512 551.394165,114.480545 552.542480,113.788795 
	C552.066895,114.451569 551.265259,115.148117 550.106628,115.820572 
z"/>
<path fill="#396FB6" opacity="1.000000" stroke="none" 
	d="
M206.104431,35.881481 
	C206.750626,36.655964 207.396820,37.430447 208.129059,38.507477 
	C208.215103,38.810024 207.936584,39.051456 207.559494,38.984837 
	C206.664978,38.057644 206.147552,37.197071 205.749283,36.223343 
	C205.868439,36.110188 206.104431,35.881477 206.104431,35.881481 
z"/>
<path fill="#1D67CC" opacity="1.000000" stroke="none" 
	d="
M538.188354,121.102432 
	C538.480042,120.731018 538.967468,120.476547 539.729675,120.187454 
	C539.464355,120.508347 538.924194,120.863861 538.188354,121.102432 
z"/>
<path fill="#4D80BB" opacity="1.000000" stroke="none" 
	d="
M329.124969,117.032974 
	C329.009491,115.876556 329.165802,114.730316 329.504211,113.289528 
	C329.791931,114.056870 329.897491,115.118752 329.970062,116.580719 
	C329.756989,117.001579 329.576874,117.022362 329.124969,117.032974 
z"/>
<path fill="#336AB3" opacity="1.000000" stroke="none" 
	d="
M514.185791,109.044304 
	C514.769348,109.217522 515.430481,109.713547 516.195068,110.512161 
	C515.620178,110.332207 514.941833,109.849663 514.185791,109.044304 
z"/>
<path fill="#336AB3" opacity="1.000000" stroke="none" 
	d="
M556.470459,109.935371 
	C556.792542,109.992836 556.870667,110.196877 557.052063,110.712784 
	C556.613098,111.310623 556.070801,111.596603 555.224548,111.928497 
	C555.355835,111.343590 555.791199,110.712776 556.470459,109.935371 
z"/>
<path fill="#336AB3" opacity="1.000000" stroke="none" 
	d="
M517.875366,76.123535 
	C517.679199,76.672829 517.168518,77.304108 516.371216,78.054398 
	C516.576721,77.517441 517.068787,76.861473 517.875366,76.123535 
z"/>
<path fill="#336AB3" opacity="1.000000" stroke="none" 
	d="
M548.103333,116.819977 
	C548.290283,116.484726 548.796875,116.123146 549.626099,115.731567 
	C549.440186,116.065590 548.931519,116.429619 548.103333,116.819977 
z"/>
<path fill="#1D67CC" opacity="1.000000" stroke="none" 
	d="
M520.029907,116.187592 
	C520.259338,116.187317 520.500000,116.382942 520.873108,116.780350 
	C520.706482,116.755020 520.385010,116.555481 520.029907,116.187592 
z"/>
<path fill="#4D80BB" opacity="1.000000" stroke="none" 
	d="
M366.876709,74.883911 
	C366.519897,74.859848 366.090240,74.561249 365.544128,74.017960 
	C365.886414,74.051971 366.345093,74.330673 366.876709,74.883911 
z"/>
<path fill="#396FB6" opacity="1.000000" stroke="none" 
	d="
M204.045532,112.065697 
	C203.965805,112.426308 203.750519,112.658165 203.229523,112.913353 
	C202.932648,112.944862 202.693069,112.693787 202.791779,112.474159 
	C203.083817,111.980690 203.341644,111.797661 203.663940,111.705452 
	C203.663940,111.705452 203.918793,111.945129 204.045532,112.065697 
z"/>
<path fill="#396FB6" opacity="1.000000" stroke="none" 
	d="
M202.198196,114.170052 
	C201.995285,114.414246 201.774048,114.640511 201.356049,115.005272 
	C201.177643,115.161697 200.932770,114.909218 200.918945,114.566345 
	C201.103958,113.951637 201.366776,113.774940 201.819473,113.812805 
	C201.945389,113.932236 202.198196,114.170052 202.198196,114.170052 
z"/>
<path fill="#346DB7" opacity="1.000000" stroke="none" 
	d="
M481.996307,71.302071 
	C482.031128,71.477959 481.830750,71.793549 481.357635,72.206131 
	C481.310303,72.016006 481.535706,71.728889 481.996307,71.302071 
z"/>
<path fill="#326CB8" opacity="1.000000" stroke="none" 
	d="
M252.997528,118.784401 
	C252.941635,118.604935 253.113983,118.249634 253.564255,117.767899 
	C253.636703,117.963829 253.431244,118.286194 252.997528,118.784401 
z"/>
<path fill="#336AB3" opacity="1.000000" stroke="none" 
	d="
M552.991455,113.797363 
	C552.971924,113.618805 553.197815,113.311470 553.711731,112.939468 
	C553.745422,113.139397 553.491211,113.403992 552.991455,113.797363 
z"/>
<path fill="#396FB6" opacity="1.000000" stroke="none" 
	d="
M205.161026,34.813320 
	C205.405685,35.018394 205.625259,35.247494 205.962097,35.691048 
	C206.104431,35.881477 205.868439,36.110188 205.533844,36.108154 
	C204.940399,35.884632 204.781723,35.606071 204.832977,35.156425 
	C204.942703,35.042419 205.161026,34.813320 205.161026,34.813320 
z"/>
<path fill="#336AB3" opacity="1.000000" stroke="none" 
	d="
M515.953491,78.187683 
	C515.996948,78.363068 515.811218,78.702995 515.347168,79.153641 
	C515.287354,78.960320 515.505859,78.656273 515.953491,78.187683 
z"/>
<path fill="#336AB3" opacity="1.000000" stroke="none" 
	d="
M520.104492,74.278809 
	C520.125427,74.459930 519.884583,74.786766 519.346130,75.210480 
	C519.313293,75.013077 519.578003,74.718803 520.104492,74.278809 
z"/>
<path fill="#336AB3" opacity="1.000000" stroke="none" 
	d="
M515.016724,79.212555 
	C515.042725,79.383362 514.827087,79.704323 514.325684,80.124451 
	C514.284912,79.936646 514.529968,79.649681 515.016724,79.212555 
z"/>
<path fill="#346DB7" opacity="1.000000" stroke="none" 
	d="
M480.069366,73.252373 
	C480.074524,73.422646 479.825531,73.702789 479.287476,74.038254 
	C479.270660,73.849800 479.542969,73.606018 480.069366,73.252373 
z"/>
<path fill="#346DB7" opacity="1.000000" stroke="none" 
	d="
M473.033325,81.227173 
	C473.046692,81.395775 472.812988,81.688637 472.291168,82.050415 
	C472.264099,81.863373 472.525177,81.607407 473.033325,81.227173 
z"/>
<path fill="#396FB6" opacity="1.000000" stroke="none" 
	d="
M199.068222,28.953775 
	C199.410660,29.039547 199.634048,29.249252 200.023956,29.617311 
	C200.191315,29.774765 199.989746,29.995003 199.656769,30.028378 
	C199.019684,29.899517 198.816833,29.653711 198.715225,29.324339 
	C198.715225,29.324339 198.950043,29.076809 199.068222,28.953775 
z"/>
<path fill="#396FB6" opacity="1.000000" stroke="none" 
	d="
M204.113129,33.908821 
	C204.426682,34.038513 204.637314,34.259239 205.003784,34.647312 
	C205.161026,34.813320 204.942703,35.042419 204.611725,35.041092 
	C204.018723,34.810112 203.861542,34.523056 203.809204,34.178593 
	C203.809204,34.178593 204.011612,33.998508 204.113129,33.908821 
z"/>
<path fill="#346DB7" opacity="1.000000" stroke="none" 
	d="
M481.055359,72.258972 
	C481.103760,72.450150 480.907013,72.794746 480.419220,73.238556 
	C480.355530,73.029312 480.582886,72.720840 481.055359,72.258972 
z"/>
<path fill="#336AB3" opacity="1.000000" stroke="none" 
	d="
M518.249634,112.924088 
	C518.413025,112.922821 518.693909,113.176414 519.041016,113.720016 
	C518.860596,113.732994 518.613831,113.455971 518.249634,112.924088 
z"/>
<path fill="#336AB3" opacity="1.000000" stroke="none" 
	d="
M554.071289,107.124878 
	C554.140381,106.690506 554.360229,106.461601 554.804565,106.121742 
	C554.937134,106.218468 554.878296,106.458008 554.707153,107.050415 
	C554.594849,107.403282 554.188843,107.298492 554.071289,107.124878 
z"/>
<path fill="#336AB3" opacity="1.000000" stroke="none" 
	d="
M513.237305,106.932312 
	C513.427734,106.938225 513.694153,107.195244 513.941650,107.739693 
	C513.719604,107.745888 513.516418,107.464661 513.237305,106.932312 
z"/>
<path fill="#336AB3" opacity="1.000000" stroke="none" 
	d="
M555.707947,107.083771 
	C556.028992,107.203514 555.989502,107.419121 555.875977,107.954468 
	C555.500793,108.141006 555.199585,108.007812 554.772339,107.655060 
	C554.879883,107.350220 555.113586,107.264938 555.707947,107.083771 
z"/>
<path fill="#336AB3" opacity="1.000000" stroke="none" 
	d="
M516.241394,110.938248 
	C516.428833,110.899811 516.773315,111.109177 517.214355,111.615898 
	C517.006714,111.670845 516.702576,111.428444 516.241394,110.938248 
z"/>
<path fill="#336AB3" opacity="1.000000" stroke="none" 
	d="
M517.244629,111.932869 
	C517.432861,111.887634 517.785156,112.087555 518.244141,112.582596 
	C518.036865,112.644485 517.722778,112.411263 517.244629,111.932869 
z"/>
<path fill="#336AB3" opacity="1.000000" stroke="none" 
	d="
M554.095581,112.852371 
	C554.065674,112.681145 554.262268,112.374321 554.729248,111.991631 
	C554.773804,112.182777 554.547913,112.449776 554.095581,112.852371 
z"/>
<path fill="#396FB6" opacity="1.000000" stroke="none" 
	d="
M203.051910,113.070900 
	C202.956848,113.415131 202.740829,113.631638 202.360672,114.008263 
	C202.198196,114.170052 201.945389,113.932236 201.922455,113.589745 
	C202.098206,112.968353 202.362717,112.783867 202.693069,112.693787 
	C202.693069,112.693787 202.932648,112.944862 203.051910,113.070900 
z"/>
<path fill="#246AC8" opacity="1.000000" stroke="none" 
	d="
M401.139038,88.551819 
	C405.351349,81.878273 410.842834,79.470253 416.816254,81.377907 
	C422.626434,83.233444 426.380310,88.964928 425.945831,95.317101 
	C425.522766,101.502075 421.303192,106.448303 415.409729,107.667633 
	C405.190063,109.782028 397.793823,100.164482 401.139038,88.551819 
z"/>
<path fill="#246AC8" opacity="1.000000" stroke="none" 
	d="
M662.195557,84.131241 
	C667.327820,80.186256 672.481079,79.551208 677.723694,82.813667 
	C682.782532,85.961823 684.515137,90.889725 683.677551,96.555115 
	C682.859314,102.089027 679.662964,105.919067 674.120361,107.475258 
	C668.933655,108.931496 663.171387,106.737816 660.172302,102.231224 
	C656.507751,96.724709 657.136108,90.285797 662.195557,84.131241 
z"/>
<path fill="#336AB3" opacity="1.000000" stroke="none" 
	d="
M535.961304,89.317986 
	C531.842407,89.317856 528.206482,89.317856 524.529541,89.317856 
	C525.150879,83.976433 528.346008,80.993004 533.640747,80.462631 
	C539.768066,79.848869 543.655579,82.451599 545.799194,89.318115 
	C542.527893,89.318115 539.486084,89.318115 535.961304,89.317986 
M529.753967,86.737091 
	C533.539917,86.737091 537.325806,86.737091 541.867188,86.737091 
	C537.720337,81.502068 531.239502,81.831406 529.753967,86.737091 
z"/>
<path fill="#336AB3" opacity="1.000000" stroke="none" 
	d="
M545.047729,104.057297 
	C545.001038,104.435318 544.867798,104.746452 544.513306,105.186172 
	C544.291992,105.314758 544.085022,105.074081 544.135437,104.790993 
	C544.386292,104.293381 544.585693,104.077950 544.784058,103.861618 
	C544.784058,103.861618 544.961121,103.990417 545.047729,104.057297 
z"/>
<path fill="#336AB3" opacity="1.000000" stroke="none" 
	d="
M551.808838,105.375275 
	C552.000549,105.312294 552.311523,105.523331 552.795715,105.957535 
	C552.622009,106.003571 552.275024,105.826439 551.808838,105.375275 
z"/>
<path fill="#4D80BB" opacity="1.000000" stroke="none" 
	d="
M329.767731,73.771690 
	C329.379517,73.815926 329.301910,73.532997 329.571381,73.080612 
	C329.748657,73.151817 329.801941,73.329605 329.767731,73.771690 
z"/>
<path fill="#FEFEFE" opacity="1.000000" stroke="none" 
	d="
M127.945099,41.067699 
	C126.687233,36.494705 125.681343,31.820696 124.137711,27.331593 
	C122.824905,23.513750 123.620934,21.194756 127.628624,21.153255 
	C138.759048,21.038002 149.893494,21.361517 161.026825,21.454050 
	C165.475876,21.491032 169.926163,21.376949 174.730164,21.107622 
	C175.507919,20.890610 175.931381,20.897604 176.832260,21.321526 
	C182.933640,23.432070 188.557602,25.125689 194.181580,26.819305 
	C194.181580,26.819305 194.048645,26.928404 194.150269,27.213078 
	C196.492401,29.001028 198.732925,30.504303 200.973450,32.007576 
	C200.973450,32.007576 201.007874,31.994444 201.114304,32.219513 
	C201.415604,32.703407 201.664566,32.890121 201.967621,33.004719 
	C201.967621,33.004719 202.005524,32.992550 202.019073,33.372684 
	C205.607849,41.882568 209.173660,50.016510 212.786896,58.129330 
	C212.962372,58.523296 213.554291,58.731792 213.952286,59.026657 
	C214.048630,59.445557 214.144958,59.864456 213.976501,60.920235 
	C213.499893,66.863106 213.207977,72.168030 213.137100,77.475899 
	C213.121017,78.682327 213.870621,79.898972 214.267761,81.110916 
	C214.281998,81.537544 214.296234,81.964180 213.869797,82.860184 
	C212.958084,84.331642 212.411423,85.305710 212.028275,86.340340 
	C209.597733,92.903595 207.418701,99.570892 204.706848,106.014534 
	C203.335129,109.273895 201.021652,112.136909 199.133957,115.179123 
	C199.133957,115.179123 199.066040,115.061295 198.730988,115.075027 
	C196.627060,116.435280 194.858215,117.781799 193.089371,119.128326 
	C193.089371,119.128326 193.028519,119.027397 192.666916,119.030388 
	C189.513092,120.265007 186.720856,121.496635 183.928635,122.728256 
	C183.531509,122.871078 183.134384,123.013893 182.098785,122.932816 
	C180.165527,122.606400 178.866943,122.380508 177.576523,122.420059 
	C161.166443,122.922989 144.759918,123.577896 128.346786,123.921631 
	C123.794891,124.016960 123.110176,122.433754 124.409340,117.839539 
	C125.653625,113.439384 126.694008,108.981575 127.823990,104.549103 
	C127.823990,104.549103 127.821754,104.245277 128.281784,103.996811 
	C131.098419,103.156654 133.446503,102.097069 135.813095,102.053978 
	C146.261688,101.863701 156.727585,102.261757 167.162491,101.837914 
	C172.388641,101.625641 177.687408,100.518288 182.698486,98.983650 
	C184.768921,98.349586 186.170944,95.532845 187.876953,93.708794 
	C187.930496,93.418991 188.079361,93.191620 188.889420,92.935791 
	C194.094498,90.348625 196.613678,83.919182 194.912155,78.917892 
	C194.909210,78.491333 194.906281,78.064766 195.215652,77.072731 
	C195.393631,73.996712 195.259308,71.486176 195.124969,68.975632 
	C195.043304,68.552444 194.961655,68.129257 195.192261,67.163452 
	C197.852539,61.384739 192.030197,51.445518 185.849106,50.138168 
	C185.849106,50.138168 185.943161,50.053379 185.844055,49.758003 
	C181.635696,47.661957 177.627258,44.641880 173.397995,44.292122 
	C161.313431,43.292725 149.134171,43.491306 137.003601,42.958199 
	C133.949860,42.823994 130.939056,41.713264 127.908516,41.051300 
	C127.908516,41.051304 127.963882,41.046867 127.945099,41.067699 
z"/>
<path fill="#1967D1" opacity="1.000000" stroke="none" 
	d="
M188.155548,52.807594 
	C188.703339,54.521072 189.012283,56.360889 189.840240,57.926174 
	C193.444138,64.739456 193.751160,72.033211 192.578964,79.324005 
	C190.704849,90.980629 182.900848,97.402550 169.614349,97.910210 
	C157.982574,98.354637 146.321060,97.979103 134.673676,98.081062 
	C131.251328,98.111015 129.933319,96.657753 129.953094,93.287979 
	C130.034103,79.476738 130.009430,65.664680 129.967697,51.853096 
	C129.959000,48.975811 130.631409,46.921398 134.069702,47.008850 
	C147.023209,47.338314 160.006989,47.225960 172.916519,48.154129 
	C177.835785,48.507816 182.585358,51.221401 187.718781,52.911327 
	C188.025269,52.963173 188.155548,52.807594 188.155548,52.807594 
z"/>
<path fill="#F7FDFE" opacity="1.000000" stroke="none" 
	d="
M110.954269,69.000038 
	C110.954269,61.048309 110.954269,53.596577 110.954269,45.744331 
	C116.775719,45.744331 122.120667,45.744331 127.773239,45.744331 
	C127.773239,63.786877 127.773239,81.631866 127.773239,99.761673 
	C122.263268,99.761673 117.018295,99.761673 110.954269,99.761673 
	C110.954269,89.627396 110.954269,79.563713 110.954269,69.000038 
z"/>
<path fill="#DFF2FD" opacity="1.000000" stroke="none" 
	d="
M127.603409,104.741058 
	C126.694008,108.981575 125.653625,113.439384 124.409340,117.839539 
	C123.110176,122.433754 123.794891,124.016960 128.346786,123.921631 
	C144.759918,123.577896 161.166443,122.922989 177.576523,122.420059 
	C178.866943,122.380508 180.165527,122.606400 181.780685,122.928101 
	C175.384384,124.021927 168.684082,125.456505 161.947586,125.653572 
	C148.320038,126.052223 134.672852,125.779655 120.573799,125.824585 
	C120.147461,124.885529 120.181076,123.905762 120.219162,122.553299 
	C122.239639,117.116379 124.255653,112.052155 126.275970,106.611313 
	C126.647797,105.800812 127.015305,105.366913 127.603409,104.741058 
z"/>
<path fill="#DFF2FD" opacity="1.000000" stroke="none" 
	d="
M187.544586,93.841949 
	C186.170944,95.532845 184.768921,98.349586 182.698486,98.983650 
	C177.687408,100.518288 172.388641,101.625641 167.162491,101.837914 
	C156.727585,102.261757 146.261688,101.863701 135.813095,102.053978 
	C133.446503,102.097069 131.098419,103.156654 128.388977,103.889160 
	C128.051331,100.594162 130.158493,100.157715 133.034576,100.176178 
	C144.528290,100.249962 156.027466,100.331802 167.515945,100.053085 
	C174.563522,99.882103 181.424377,98.513939 187.544586,93.841949 
z"/>
<path fill="#DFF2FD" opacity="1.000000" stroke="none" 
	d="
M127.934204,41.458420 
	C130.939056,41.713264 133.949860,42.823994 137.003601,42.958199 
	C149.134171,43.491306 161.313431,43.292725 173.397995,44.292122 
	C177.627258,44.641880 181.635696,47.661957 185.812805,49.813061 
	C178.138245,45.622013 169.481094,45.422688 160.918427,45.182457 
	C151.623627,44.921692 142.315506,45.075848 133.014038,45.152187 
	C130.485458,45.172939 128.304077,45.031441 127.934204,41.458420 
z"/>
<path fill="#DFF2FD" opacity="1.000000" stroke="none" 
	d="
M185.989349,50.405800 
	C192.030197,51.445518 197.852539,61.384739 195.233643,66.841499 
	C192.904953,62.404804 190.847168,57.747444 188.472473,52.948837 
	C188.155548,52.807594 188.025269,52.963173 188.100052,52.894066 
	C187.493088,52.107784 186.811340,51.390610 185.989349,50.405800 
z"/>
<path fill="#DFF2FD" opacity="1.000000" stroke="none" 
	d="
M194.716034,79.237595 
	C196.613678,83.919182 194.094498,90.348625 189.083572,92.860474 
	C190.647888,88.436470 192.583893,83.996887 194.716034,79.237595 
z"/>
<path fill="#DFF2FD" opacity="1.000000" stroke="none" 
	d="
M195.045914,69.417274 
	C195.259308,71.486176 195.393631,73.996712 195.311798,76.765366 
	C195.052689,74.635292 195.009766,72.247108 195.045914,69.417274 
z"/>
<path fill="#DFF2FD" opacity="1.000000" stroke="none" 
	d="
M194.012344,26.561443 
	C188.557602,25.125689 182.933640,23.432070 177.131134,21.436041 
	C181.296432,22.156261 185.640274,23.178894 190.357437,24.269138 
	C191.768204,24.992361 192.805664,25.647972 194.012344,26.561443 
z"/>
<path fill="#DFF2FD" opacity="1.000000" stroke="none" 
	d="
M199.405212,115.130188 
	C201.021652,112.136909 203.335129,109.273895 204.706848,106.014534 
	C207.418701,99.570892 209.597733,92.903595 212.028275,86.340340 
	C212.411423,85.305710 212.958084,84.331642 213.754654,83.160484 
	C213.677856,93.430244 210.433990,102.842415 203.798203,111.391510 
	C203.341644,111.797661 203.083817,111.980690 202.791779,112.474159 
	C202.362717,112.783867 202.098206,112.968353 201.796539,113.470314 
	C201.366776,113.774940 201.103958,113.951637 200.797241,114.439392 
	C200.351730,114.797295 200.014114,114.939278 199.405212,115.130188 
z"/>
<path fill="#DFF2FD" opacity="1.000000" stroke="none" 
	d="
M214.011642,58.615314 
	C213.554291,58.731792 212.962372,58.523296 212.786896,58.129330 
	C209.173660,50.016510 205.607849,41.882568 202.011765,33.391190 
	C202.434616,33.328331 202.878326,33.627098 203.565613,34.052231 
	C203.861542,34.523056 204.018723,34.810112 204.501999,35.155098 
	C204.781723,35.606071 204.940399,35.884632 205.414703,36.221306 
	C206.147552,37.197071 206.664978,38.057644 207.420532,39.105900 
	C209.796112,45.597046 211.933563,51.900509 214.011642,58.615314 
z"/>
<path fill="#DFF2FD" opacity="1.000000" stroke="none" 
	d="
M214.470978,80.742355 
	C213.870621,79.898972 213.121017,78.682327 213.137100,77.475899 
	C213.207977,72.168030 213.499893,66.863106 213.931229,61.242058 
	C214.325241,67.409264 214.499725,73.891533 214.470978,80.742355 
z"/>
<path fill="#EEF9FD" opacity="1.000000" stroke="none" 
	d="
M256.874847,53.862377 
	C253.566818,55.844997 250.382156,57.927483 246.187485,56.208874 
	C240.957642,54.066135 238.420731,48.675426 240.453674,43.591427 
	C242.387329,38.755760 247.996552,36.303448 252.843994,38.174496 
	C257.927124,40.136513 260.266296,45.684147 258.184418,50.913628 
	C257.878693,51.681538 257.410828,52.384884 256.905212,53.476414 
	C256.792419,53.834728 256.920135,53.926739 256.874847,53.862377 
z"/>
<path fill="#DFF2FD" opacity="1.000000" stroke="none" 
	d="
M184.285889,122.739075 
	C186.720856,121.496635 189.513092,120.265007 192.710052,119.070541 
	C191.829559,119.834518 190.544327,120.561340 189.020111,121.503258 
	C187.401810,122.062195 186.022476,122.406044 184.285889,122.739075 
z"/>
<path fill="#1D67CC" opacity="1.000000" stroke="none" 
	d="
M544.759399,103.489456 
	C544.585693,104.077950 544.386292,104.293381 544.035156,104.667953 
	C540.465454,105.171341 537.024048,105.907150 533.635681,105.713852 
	C531.534607,105.593987 529.513977,104.064079 527.721008,102.291611 
	C533.589050,101.675446 539.371460,98.754288 544.759399,103.489456 
z"/>
<path fill="#DFF2FD" opacity="1.000000" stroke="none" 
	d="
M200.896027,31.744055 
	C198.732925,30.504303 196.492401,29.001028 194.204269,27.146160 
	C195.474167,27.551607 196.791672,28.308645 198.412201,29.195011 
	C198.816833,29.653711 199.019684,29.899517 199.555603,30.138134 
	C200.131134,30.636520 200.474869,31.058527 200.896027,31.744055 
z"/>
<path fill="#DFF2FD" opacity="1.000000" stroke="none" 
	d="
M193.416382,119.091110 
	C194.858215,117.781799 196.627060,116.435280 198.780884,115.121223 
	C198.464279,115.830605 197.762695,116.507515 196.881485,117.421524 
	C195.715698,118.123711 194.729538,118.588806 193.416382,119.091110 
z"/>
<path fill="#DFF2FD" opacity="1.000000" stroke="none" 
	d="
M201.902130,32.761814 
	C201.664566,32.890121 201.415604,32.703407 201.108765,32.237091 
	C201.276749,32.192703 201.556702,32.355804 201.902130,32.761814 
z"/>
<path fill="#1D67CC" opacity="1.000000" stroke="none" 
	d="
M529.464600,86.539383 
	C531.239502,81.831406 537.720337,81.502068 541.867188,86.737091 
	C537.325806,86.737091 533.539917,86.737091 529.464600,86.539383 
z"/>
</svg>